<svg preserveAspectRatio="none" width="100%" height="100%" overflow="visible" style="display: block;" viewBox="0 0 111.113 27.3479" fill="none" xmlns="http://www.w3.org/2000/svg">
<g id="Frame 2117131451">
<path id="Vector" d="M105.909 26.5281V0H111.113V26.5281H105.909Z" fill="var(--fill-0, #3B374F)"/>
<path id="Vector_2" d="M93.2558 26.8145C87.551 26.8145 83.3809 22.703 83.3809 16.9111C83.3809 11.1193 87.551 7.00776 93.2558 7.00776C98.9606 7.00776 103.097 11.1193 103.097 16.9111C103.097 22.703 98.9606 26.8145 93.2558 26.8145ZM93.2558 22.2382C95.858 22.2382 97.8263 20.2361 97.8263 16.9111C97.8263 13.5862 95.858 11.584 93.2558 11.584C90.6536 11.584 88.652 13.5862 88.652 16.9111C88.652 20.2361 90.6536 22.2382 93.2558 22.2382Z" fill="var(--fill-0, #3B374F)"/>
<path id="Vector_3" d="M72.0622 26.8145C66.3574 26.8145 62.1872 22.703 62.1872 16.9111C62.1872 11.1193 66.3574 7.00776 72.0622 7.00776C77.7669 7.00776 81.9037 11.1193 81.9037 16.9111C81.9037 22.703 77.7669 26.8145 72.0622 26.8145ZM72.0622 22.2382C74.6643 22.2382 76.6327 20.2361 76.6327 16.9111C76.6327 13.5862 74.6643 11.584 72.0622 11.584C69.46 11.584 67.4583 13.5862 67.4583 16.9111C67.4583 20.2361 69.46 22.2382 72.0622 22.2382Z" fill="var(--fill-0, #3B374F)"/>
<path id="Vector_4" d="M30.6879 26.8145C24.8497 26.8145 20.6795 22.703 20.6795 16.9111C20.6795 11.1193 24.8497 7.00776 30.6879 7.00776C34.4577 7.00776 37.4269 8.75961 38.728 11.9058L34.6912 14.2297C33.8608 12.3403 32.2892 11.584 30.6545 11.584C28.019 11.584 25.9506 13.5504 25.9506 16.9111C25.9506 20.2718 28.019 22.2382 30.6545 22.2382C32.2892 22.2382 33.7238 21.4516 34.6912 19.5925L38.728 21.9522C37.4269 25.0269 34.4577 26.8145 30.6879 26.8145Z" fill="var(--fill-0, #3B374F)"/>
<path id="Vector_5" d="M9.44853 27.3479C5.7686 27.3479 2.05551 26.1622 5.59598e-05 24.4376L1.82345 20.054C3.77945 21.5991 6.69687 22.677 9.48169 22.677C12.6643 22.677 13.9573 21.5272 13.9573 19.9822C13.9573 15.2753 0.464192 18.509 0.464192 9.16708C0.464192 4.89135 3.64684 1.33422 10.2442 1.33422C13.1616 1.33422 16.1454 2.08876 18.3003 3.56192L16.6426 7.98138C14.4877 6.65194 12.2665 6.00519 10.211 6.00519C7.0284 6.00519 5.80175 7.29869 5.80175 8.87964C5.80175 13.5147 19.2948 10.3169 19.2948 19.551C19.2948 23.7549 16.079 27.3479 9.44853 27.3479Z" fill="var(--fill-0, #3B374F)"/>
<path id="Subtract" d="M46.18 7.88363C45.6997 9.12429 45.2152 10.6011 45.1263 11.6883C45.4604 10.6281 45.9102 9.59387 46.6155 8.87386C47.9824 7.64935 49.8112 7.00961 51.8851 7.00961C56.1219 7.00963 59.3245 9.65507 59.3245 15.5184V26.5301H54.1204V16.3768C54.1204 13.2664 52.7856 11.8358 50.4837 11.8358C47.9817 11.8358 46.18 13.4809 46.18 17.0203V26.5301H40.9759V0.00179355H46.18V7.88363Z" fill="var(--fill-0, #3B374F)"/>
</g>
</svg>
