<svg preserveAspectRatio="none" width="100%" height="100%" overflow="visible" style="display: block;" viewBox="0 0 97 97" fill="none" xmlns="http://www.w3.org/2000/svg">
<g id="Frame 2117131550">
<g id="Vector">
<path d="M40.9119 88.8074C30.7389 103.713 9.30139 89.4383 4.0574 76.9954C-0.0198467 67.3273 2.86483 55.739 8.39322 47.1618C13.8303 38.7135 34.7399 18.5351 43.0424 32.6006C48.0342 41.0562 46.4865 80.6317 40.9119 88.8074Z" fill="var(--fill-0, #D6E4CC)" fill-opacity="0.4"/>
<path d="M40.9119 88.8074C30.7389 103.713 9.30139 89.4383 4.0574 76.9954C-0.0198467 67.3273 2.86483 55.739 8.39322 47.1618C13.8303 38.7135 34.7399 18.5351 43.0424 32.6006C48.0342 41.0562 46.4865 80.6317 40.9119 88.8074Z" fill="url(#paint0_radial_9_2697)" fill-opacity="0.1"/>
<path d="M40.9119 88.8074C30.7389 103.713 9.30139 89.4383 4.0574 76.9954C-0.0198467 67.3273 2.86483 55.739 8.39322 47.1618C13.8303 38.7135 34.7399 18.5351 43.0424 32.6006C48.0342 41.0562 46.4865 80.6317 40.9119 88.8074Z" fill="url(#paint1_radial_9_2697)" fill-opacity="0.1"/>
</g>
<circle id="Ellipse 26579" cx="44.8625" cy="44.8625" r="29.5042" fill="var(--fill-0, white)"/>
<path id="Vector 85" d="M34.2642 73.2371C14.8593 63.792 14.3598 45.6213 16.5357 37.7167C15.4161 58.6376 31.3509 66.6404 39.4582 68.0268C39.0273 68.4983 37.3852 70.2006 34.2642 73.2371Z" fill="var(--fill-0, #D9D9D9)"/>
<path id="Vector 86" d="M46.332 13.5413C67.7056 16.5295 73.7942 33.6569 74.1669 41.8471C68.7684 21.6037 51.1408 18.9152 43.0017 20.1014C43.2659 19.5198 44.3018 17.3935 46.332 13.5413Z" fill="var(--fill-0, #D9D9D9)"/>
<g id="Vector_2">
<path d="M56.4579 42.6941V53.2551C56.4579 53.9868 56.2839 54.5401 55.9359 54.9149C55.5879 55.2897 55.1461 55.4771 54.6107 55.4771C54.0753 55.4771 53.6381 55.2852 53.299 54.9015C52.9688 54.5178 52.8037 53.969 52.8037 53.2551V42.8012C52.8037 42.0784 52.9688 41.5341 53.299 41.1682C53.6381 40.8024 54.0753 40.6194 54.6107 40.6194C55.1461 40.6194 55.5879 40.8024 55.9359 41.1682C56.2839 41.5341 56.4579 42.0427 56.4579 42.6941ZM54.6509 38.9195C54.1423 38.9195 53.705 38.7633 53.3391 38.451C52.9822 38.1387 52.8037 37.697 52.8037 37.1259C52.8037 36.6083 52.9867 36.1844 53.3525 35.8543C53.7273 35.5152 54.1601 35.3456 54.6509 35.3456C55.1238 35.3456 55.5432 35.4973 55.9091 35.8007C56.275 36.1041 56.4579 36.5458 56.4579 37.1259C56.4579 37.688 56.2794 38.1298 55.9225 38.451C55.5656 38.7633 55.1417 38.9195 54.6509 38.9195Z" fill="var(--fill-0, #FD746B)"/>
<path d="M46.2219 52.9205L45.285 50.4576H37.3074L36.3704 52.974C36.0045 53.9556 35.6922 54.6204 35.4334 54.9684C35.1746 55.3075 34.7508 55.4771 34.1618 55.4771C33.6621 55.4771 33.2204 55.2941 32.8367 54.9283C32.453 54.5624 32.2611 54.1475 32.2611 53.6834C32.2611 53.4157 32.3057 53.1391 32.395 52.8536C32.4842 52.568 32.6314 52.1709 32.8367 51.6623L37.8561 38.9195C37.9989 38.5536 38.1685 38.1164 38.3648 37.6077C38.57 37.0902 38.7842 36.6618 39.0073 36.3227C39.2393 35.9837 39.5382 35.7115 39.9041 35.5062C40.2789 35.2921 40.7384 35.185 41.2828 35.185C41.836 35.185 42.2956 35.2921 42.6615 35.5062C43.0363 35.7115 43.3352 35.9792 43.5583 36.3094C43.7903 36.6395 43.9821 36.9965 44.1338 37.3802C44.2945 37.755 44.4952 38.2591 44.7362 38.8927L49.8627 51.5552C50.2643 52.5189 50.4651 53.2194 50.4651 53.6567C50.4651 54.1118 50.2732 54.5312 49.8895 54.9149C49.5147 55.2897 49.0596 55.4771 48.5242 55.4771C48.2119 55.4771 47.9442 55.4191 47.7211 55.3031C47.498 55.196 47.3106 55.0487 47.1589 54.8614C47.0072 54.665 46.8421 54.3706 46.6637 53.9779C46.4941 53.5764 46.3469 53.2239 46.2219 52.9205ZM38.3514 47.4727H44.2142L41.256 39.3746L38.3514 47.4727Z" fill="var(--fill-0, #FD746B)"/>
</g>
<path id="Vector_3" d="M66.227 72.9864C65.7375 73.1004 67.1764 72.3857 66.1406 72.7262C66.328 72.5991 66.5158 72.4776 66.7061 72.3609C66.794 72.4058 66.8821 72.4507 66.9681 72.4973C66.7151 72.6535 66.4717 72.8142 66.2272 72.9867C66.2271 72.9866 66.2271 72.9865 66.227 72.9864ZM66.4239 74.0505C66.509 73.7194 67.1932 73.2529 66.3196 73.5219C66.3002 73.6264 66.2804 73.7319 66.2633 73.8364C65.9752 73.9474 65.6823 74.0756 65.3984 74.2138C65.327 74.3054 65.2557 74.3992 65.1892 74.4908C64.9937 74.4719 64.7954 74.4581 64.5927 74.4519C64.7058 74.3803 64.8204 74.311 64.9333 74.2454C65.2643 73.8372 65.6213 73.5371 66.2072 73.1562C66.1382 73.16 66.0687 73.1648 65.9988 73.1701C66.3308 73.0283 66.6658 72.9022 66.9992 72.7908C66.7566 72.9778 66.4903 73.1975 66.2812 73.3846C66.7701 73.3324 67.3885 72.8747 67.74 72.6668C68.2123 72.3849 68.1376 72.532 68.4931 72.336C68.5495 72.3056 68.5262 72.2283 68.6416 72.1802C69.2361 71.9319 70.3616 71.5724 69.7776 71.985C68.8151 72.3143 68.0406 72.7774 67.1 73.2122C67.4453 73.2794 66.9863 73.5805 66.4239 74.0505ZM71.3162 59.596C71.4708 59.874 71.5248 60.484 71.5115 60.9071C71.5115 60.9076 71.5116 60.908 71.5117 60.9085C71.5085 60.9987 71.399 61.2202 71.3632 60.9299C71.3027 60.4455 71.4837 60.1883 71.2951 59.9564C71.304 59.838 71.3101 59.7235 71.3162 59.596ZM72.4037 57.7332C72.7106 57.7364 72.6028 57.9224 72.2223 57.9407C72.2223 57.9408 72.2223 57.9409 72.2223 57.941C72.0911 57.9473 72.2623 57.8253 72.023 57.9094L71.1404 58.0418L71.3004 58.9504C71.3167 58.9868 71.3466 59.0644 71.3843 59.1431C71.3058 59.2898 71.2286 59.3942 71.1505 59.5295C71.125 59.3916 71.1009 59.2708 71.0753 59.1385C71.1742 59.1731 71.1767 59.0754 71.1648 58.9767L70.9799 57.9263L72.0002 57.7732C72.1124 57.7605 72.2615 57.7319 72.4037 57.7332ZM70.2213 71.7213C70.212 71.5617 70.0293 71.6307 69.675 71.6482C69.9761 71.5423 70.279 71.4376 70.5571 71.3342C70.4504 71.4628 70.3367 71.5919 70.2213 71.7213ZM63.5241 75.8159C63.5238 75.8163 63.5234 75.8167 63.5231 75.8171C63.4675 75.9201 63.4132 76.0246 63.364 76.1247C63.2798 76.1429 63.196 76.1621 63.1111 76.1831C62.9022 76.5398 62.7202 76.8967 62.5563 77.2608C62.4343 77.1343 62.847 76.5429 63.0054 76.1534C63.4054 75.7141 63.6841 75.5638 63.8101 75.6318C63.7151 75.6905 63.62 75.7512 63.5241 75.8159ZM48.6498 13.9108C48.5219 13.9395 48.3958 13.9693 48.2686 13.9997C48.4273 14.0411 48.5848 14.0787 48.743 14.1261C49.1941 13.9901 49.2121 14.1709 49.7661 14.2557C51.4566 14.5484 51.0995 14.1525 52.4847 14.9895C51.2866 14.6442 51.6961 14.9777 50.9364 14.9671C50.8122 14.8091 51.5998 14.7 51.122 14.5289C50.2403 14.4648 49.4018 14.435 48.4449 14.3916C48.4696 14.4169 48.4941 14.4422 48.5186 14.4676C48.67 14.4746 48.8199 14.4825 48.971 14.4918C48.8014 14.5247 48.6361 14.559 48.4649 14.595C48.6896 14.4921 48.1524 14.4943 48.2421 14.3536C48.2822 14.2904 48.5296 14.2283 48.6778 14.1844C48.3242 14.0986 47.9577 14.021 47.5934 13.9488C47.7895 13.9151 47.9861 13.8832 48.1819 13.8532C48.3377 13.8707 48.4919 13.8898 48.6471 13.9098C48.648 13.9101 48.6489 13.9105 48.6498 13.9108ZM26.7601 67.032C26.2973 66.8862 25.6279 66.3868 25.4148 65.9743C25.849 66.3372 26.2969 66.6893 26.7601 67.032ZM63.9217 75.6818C63.8646 75.7052 63.8086 75.7283 63.7512 75.7532C63.8761 75.5354 64.0191 75.311 64.1622 75.0992C64.2512 75.1196 64.3389 75.1418 64.4289 75.1618C64.2563 75.3273 64.0845 75.5032 63.9217 75.6818ZM72.2204 65.7701C72.2304 65.9372 72.2285 65.9523 72.2219 66.16C72.2219 66.1597 72.222 66.1595 72.2221 66.1592C72.222 66.2434 72.1789 66.928 72.1182 66.8517C72.1195 66.5138 72.1152 66.1492 72.1039 65.8001C72.1427 65.7883 72.1814 65.7847 72.2204 65.7701ZM71.9406 69.698C71.9404 69.6984 71.9402 69.6988 71.94 69.6992C71.9068 69.8086 71.8633 69.9105 71.8292 70.0234C71.843 69.5937 72.0185 69.5543 72.0361 69.1556C72.0488 68.7475 71.9798 68.4932 72.2361 68.1653C72.2607 68.2989 72.2982 68.4378 72.3242 68.5797C72.1684 69.1508 72.2297 69.3083 72.2226 69.7866C72.1285 69.7566 72.0349 69.7274 71.9406 69.698ZM55.8793 16.3821C56.0288 16.3216 56.1031 16.4753 56.1145 16.4817C56.1142 16.4817 56.1139 16.4817 56.1137 16.4817C57.0839 16.7962 55.971 16.4811 56.8321 16.8928C56.6915 16.8586 56.5523 16.828 56.4126 16.7968C56.2372 16.658 56.0556 16.5113 55.8793 16.3821ZM73.8671 41.9448C73.8346 41.956 73.8021 41.969 73.7695 41.9802C73.7429 41.405 73.6002 41.2717 73.6749 40.7889C73.7466 41.1707 73.8108 41.5559 73.8675 41.9447C73.8674 41.9447 73.8672 41.9447 73.8671 41.9448ZM72.2495 62.842C72.3803 63.4805 72.4498 63.9513 72.392 64.5774C72.3919 64.5779 72.3918 64.5784 72.3917 64.5789C72.3879 64.6146 72.3071 64.4482 72.2929 64.4956C72.3119 64.6213 72.3363 64.7513 72.3562 64.8792C72.3019 64.8999 72.2475 64.9197 72.1934 64.9403C72.1883 64.5797 72.1777 64.2161 72.1629 63.8552C72.1351 63.9116 72.1075 63.968 72.0794 64.0238C72.0378 63.7181 71.9935 63.4182 71.9454 63.1097C72.0467 63.2071 72.1481 63.3076 72.2488 63.4027C72.2505 63.2188 72.2496 63.0261 72.2495 62.842ZM72.1413 32.5086C72.1456 32.6169 72.0193 32.4639 72.049 32.6225C72.0792 32.7805 72.2464 33.0288 72.1266 33.0014C72.0378 32.8076 71.9413 32.6059 71.8464 32.4113C71.9392 33.1217 72.3246 33.7167 72.1138 33.8024C71.9479 33.1588 71.7223 32.6567 71.4144 32.0927C71.5917 32.0449 71.983 32.5838 71.9836 32.1418C72.0363 32.2624 72.0917 32.3893 72.1404 32.5075C72.1407 32.5079 72.141 32.5083 72.1413 32.5086ZM62.6786 85.0252C62.6246 85.4039 62.6394 86.2648 62.5201 86.7608C62.4894 86.8754 62.1446 87.2613 62.1009 87.2606C61.9519 87.246 61.943 86.7545 61.8343 87.2787C61.8366 87.1004 61.8355 86.9295 61.8388 86.7572C61.7377 86.7846 61.637 86.8123 61.5364 86.8391C61.5447 87.0523 61.5551 87.269 61.5678 87.4888C61.5345 87.4991 61.5012 87.5095 61.4679 87.52C61.4806 86.7345 61.3444 87.1953 61.2363 86.7889C61.164 87.1548 61.0978 87.5361 61.0376 87.9257C61.0449 87.7006 61.053 87.4401 61.0655 87.2486C60.8958 87.2184 60.9298 87.6829 60.8988 87.7649C60.7082 88.2091 60.8464 85.9305 60.6328 85.7354C60.5819 86.0891 60.5362 86.4875 60.4981 86.8574C60.4708 86.7526 60.4442 86.6409 60.4182 86.529C60.6231 85.6731 60.7527 84.7516 60.9977 83.7715C61.003 83.6833 61.0086 83.5956 61.0149 83.51C60.9354 83.5236 60.8563 83.5361 60.7767 83.5503C60.7869 83.4209 60.8012 83.2727 60.8148 83.1372C61.0001 83.5796 61.0771 83.018 61.361 82.4077C61.3746 82.7734 61.2515 83.1786 61.4189 83.1802C61.4905 81.9745 62.0211 80.6623 62.3298 79.5419C62.4065 79.2698 62.2055 79.1673 62.5214 78.5579C62.5318 78.5897 62.5679 78.6121 62.5888 78.6395C63.0344 77.534 63.3959 76.857 64.2961 75.9936C64.1917 75.9947 64.0871 75.9967 63.9812 76.0017C63.8311 76.2322 63.6949 76.4631 63.5654 76.7002C63.3575 76.7754 63.4592 76.5117 63.0074 77.1831C62.6551 77.7412 62.9137 77.4385 62.8517 77.6098C62.7716 77.8434 62.5793 77.98 62.5102 78.2349C62.4586 78.433 62.6432 78.2885 62.3939 78.7413C62.3579 78.5014 62.3353 78.2355 62.3153 77.9836C62.4031 77.8843 62.4918 77.7883 62.5849 77.6886C62.549 77.823 62.5191 77.9505 62.4902 78.0808C62.6486 77.649 62.8217 77.2434 63.0428 76.8062C63.1152 77.0445 63.3333 76.5993 63.4845 76.3724C63.715 76.0238 63.5959 76.3878 63.7517 76.1608C63.9102 75.9354 63.9908 75.6087 64.369 75.277C64.2431 75.5257 64.5526 75.3269 64.5596 75.4335C64.5658 75.5375 64.2241 75.9156 64.6282 75.6271C65.2639 74.9245 64.303 75.413 64.7478 74.9318C65.3108 74.3567 65.7701 74.6639 65.6534 74.8832C65.5663 75.0526 65.0969 75.4346 65.0302 75.6201C65.9196 75.0148 65.7666 74.811 65.878 74.6433C66.3117 74.0758 66.2518 74.797 66.8091 74.2008C66.8516 74.2995 66.8912 74.3874 66.932 74.482C67.0361 74.396 67.097 74.3296 67.2323 74.2348C66.7121 74.2977 67.0549 74.1052 67.2355 74.0051C67.5167 73.8495 67.0326 74.001 67.0939 73.9378C67.2609 73.7618 67.606 73.6197 67.3612 73.6444C67.4722 73.6339 67.5897 73.6215 67.7008 73.6132C68.0097 73.3947 68.6671 72.6226 67.9103 73.0603C67.9123 72.877 68.2084 72.8297 68.417 72.7688C68.6289 72.7065 68.5865 72.6106 68.771 72.5566C69.5103 72.3479 69.11 72.6988 69.0507 72.8736C69.9421 72.4256 69.0125 72.7079 70.3267 72.1514C70.4154 71.9962 69.7593 72.1083 70.2463 71.8575C70.366 71.974 70.6491 72.0011 71.0922 71.9033C71.2048 71.8831 71.3319 71.8351 71.4609 71.7484C71.48 71.673 71.4955 71.5943 71.5017 71.5211C71.8541 71.3755 71.9645 71.6262 72.0872 70.863C72.2855 71.4037 72.2049 71.0664 72.5827 70.4459C72.6577 70.3189 72.6431 70.662 72.7448 70.4826C72.7907 70.4024 72.792 70.1566 72.889 69.9516C72.9401 69.8523 73.1994 69.3616 73.165 68.989C72.9308 69.2178 72.8426 68.5412 72.6035 69.0794C72.7761 68.0523 72.6955 67.2941 72.8927 68.4984C72.9784 68.2409 73.0579 67.9671 73.131 67.7019C73.0911 67.5102 73.0488 67.3171 73.004 67.128C73.1698 67.1035 73.225 67.1288 73.1909 66.3846C73.234 66.7071 73.2722 67.0332 73.3028 67.3591C73.3363 67.3709 73.37 67.4176 73.4031 67.4077C73.3582 67.0045 73.3162 65.8769 73.2565 65.6076C73.2019 65.3375 73.209 65.8628 73.1627 65.7858C72.7835 65.1495 73.046 65.1939 72.9581 64.7307C72.9054 64.461 72.9055 65.113 72.8812 64.9683C72.7937 64.4332 72.9631 64.1699 72.9248 63.6912C72.8328 63.873 72.7375 64.0458 72.6419 64.2198C72.6107 63.7253 72.5583 63.1616 72.4742 62.7093C72.4406 62.5265 72.3765 62.6744 72.3679 62.6449C72.3251 62.4984 72.2109 61.9091 72.2019 61.8467C72.1405 61.3712 72.2493 61.3509 72.1893 60.8821C72.2242 61.0598 72.2569 61.2345 72.2889 61.4065C72.4774 61.4632 72.6662 61.5236 72.8552 61.5843C72.8086 61.1212 72.7566 60.6627 72.6999 60.2077C72.6909 60.5432 72.6813 60.8925 72.6672 61.2348C72.4526 60.7305 72.2312 60.2325 72.0032 59.7412C72.0458 59.4531 72.0912 59.1908 72.1262 58.89C72.1183 58.8539 72.1084 58.8125 72.1022 58.7951L72.0899 58.7251L72.1579 58.7149C72.7646 58.5605 72.5967 58.2735 72.9765 58.5147C73.1881 58.4521 73.3998 58.3896 73.6114 58.3273C73.588 58.377 73.5649 58.4268 73.5415 58.4765C73.7973 58.4055 74.0531 58.3347 74.3089 58.2634C74.0087 58.1515 73.7125 58.0304 73.4157 57.9227C73.9224 57.8026 73.9547 57.9348 74.0367 57.9554C74.2542 58.0099 74.6365 57.8232 74.8113 57.8781C74.8705 57.8971 74.383 58.0693 74.5731 58.1419C74.6102 58.1559 75.3451 58.4168 75.7597 58.2587C75.7403 58.1924 75.6933 58.115 75.6635 58.0444C76.2336 57.9067 76.587 58.2105 76.5271 58.3223C76.8228 58.2016 77.2711 58.1206 77.3161 58.0017C77.4727 57.9728 77.6282 57.9442 77.7848 57.9153C77.6653 58.2063 78.3122 58.0484 78.3172 57.8145C78.0465 57.8541 77.7754 57.8934 77.5046 57.933C77.6621 57.6209 76.8141 57.5905 78.5633 57.5622C78.9136 57.6522 77.9801 57.6396 78.2641 57.7034C78.7363 57.6891 79.1609 57.5638 79.6167 57.5909C80.1577 57.6236 79.5897 57.8376 80.6173 57.5334L80.8261 57.4948L80.7401 57.3067C80.7137 57.2621 80.6852 57.2142 80.6545 57.1626C80.6701 57.219 80.685 57.273 80.699 57.3246L80.7614 57.4612L80.6099 57.4892C79.0248 57.5193 79.5926 57.3813 80.5601 57.192L80.4229 57.4454C80.1606 56.8877 79.8408 56.1834 79.5954 55.741C79.8161 55.2434 79.4804 54.1583 78.7483 52.782C78.7108 52.9752 78.9594 53.4002 79.0386 53.6731C79.1177 53.9459 78.9349 53.6932 79.0276 54.0356C79.1205 54.3782 79.3542 55.0897 79.4242 55.447C79.2457 55.1965 78.5135 53.8953 79.0716 54.7233C78.8793 54.0071 78.8456 53.6459 78.5005 52.8049C78.2317 52.6253 78.1403 52.6873 77.7807 51.8776C78.2126 52.2606 77.9636 51.2708 78.2817 51.3736C78.48 51.9726 78.1164 51.7483 78.1553 52.1278C78.1596 52.1666 78.4499 52.6785 78.5005 52.8049C78.464 52.1762 78.4567 51.9564 78.8405 52.1852C78.6523 51.8115 78.5781 51.5603 78.449 51.5751C78.4635 51.4737 78.4778 51.3719 78.4928 51.2718C78.4371 51.1477 78.3835 51.0376 78.3266 50.9051C78.2346 51.162 78.1861 50.7633 77.9987 50.5467C77.8112 50.3301 77.8228 50.7256 77.52 50.038C77.5801 50.285 77.6374 50.5099 77.6964 50.7485C77.4582 50.3239 77.2191 49.898 76.9808 49.4735C77.0123 49.8311 77.152 50.5748 77.006 50.6166C76.9687 50.3894 76.5709 49.729 76.5336 49.654C76.3897 49.3634 76.5474 49.4871 76.5398 49.4637C76.3782 48.9789 76.1806 48.6079 76.235 48.3732C76.0223 48.0488 75.9407 47.7697 75.7749 47.3997C75.6836 47.196 75.6042 47.2781 75.5702 47.1504C75.345 46.3012 75.8015 47.0044 74.8923 45.5739C74.9061 45.7892 74.9173 46.0027 74.9304 46.2182C74.8292 46.056 74.7283 45.8949 74.627 45.7327C74.5886 45.6113 74.5507 45.491 74.5122 45.3696C74.6595 45.3082 74.8074 45.2471 74.9547 45.1857C74.9071 45.055 74.859 44.9239 74.8113 44.7932C74.9211 45.0051 75.0312 45.2176 75.141 45.4295C75.1755 45.4382 75.2094 45.4456 75.2438 45.4542C75.1419 45.1126 75.0408 44.7719 74.9392 44.4301C74.8856 44.4461 74.8317 44.4624 74.7781 44.4784C74.6503 44.087 74.5976 43.8872 74.5162 43.6995L74.5089 43.6645C74.5093 43.4705 74.4819 43.2756 74.399 42.9109C74.3864 42.3302 74.1268 41.8717 74.0062 41.5473C74.0289 41.4262 74.0513 41.3048 74.0725 41.182C74.0202 41.1096 73.9678 41.0369 73.915 40.9653C73.9655 40.8093 74.0149 40.6525 74.0624 40.4933C73.9074 40.4232 73.8623 40.3889 73.8657 40.9762C73.6716 40.7944 73.6377 39.7587 73.6323 39.3359C73.6313 39.0141 73.8329 39.3415 73.8452 39.2998C73.8892 39.1594 73.7516 38.6404 73.7418 38.5298C73.7033 38.0571 73.6329 37.7378 73.576 37.3115C73.5653 37.2289 73.6082 36.9808 73.6066 36.9608C73.5892 36.8069 73.5456 36.4266 73.536 36.3844C73.0263 34.2097 73.2693 36.6087 72.7279 34.624C72.6942 34.6994 72.6592 34.7697 72.6246 34.8433C72.5755 34.6964 72.525 34.5484 72.4737 34.4026C72.4557 34.2023 72.6104 34.4006 72.4222 34.0528C72.4943 34.055 72.5666 34.0574 72.6389 34.0614C72.5497 33.9114 72.4617 33.7683 72.369 33.617C72.5035 33.2807 72.1863 32.321 72.4654 32.2852C72.5627 32.271 72.9151 32.912 72.8696 32.5184C72.774 32.2206 72.7471 32.4583 72.6949 32.3424C72.3138 31.5101 72.4698 31.4987 72.2814 31.1711C72.1959 31.1445 72.108 31.116 72.0214 31.0893C71.9813 30.953 71.94 30.8166 71.8974 30.6795C71.8425 30.669 71.7871 30.6575 71.7323 30.6473C71.7862 30.7679 71.8461 30.904 71.8939 31.0156C71.6731 30.9293 70.9145 29.5847 71.311 30.044C71.4739 30.231 71.6431 30.6415 71.707 30.2991C71.4972 29.9361 71.2541 29.5294 71.0189 29.159C71.0515 29.1257 71.0846 29.0932 71.1171 29.0599C70.8057 28.5538 70.9108 29.1127 70.8257 29.1567C70.7588 29.0399 70.6908 28.9223 70.6225 28.8067C70.632 28.7359 70.6445 28.6664 70.651 28.5937C70.5882 28.623 70.4146 28.6362 70.2627 28.2626C70.1638 28.0221 70.522 28.2815 70.2468 27.8717C70.1742 27.9596 70.1563 28.176 69.8405 27.7308C69.9067 27.6258 69.9533 27.5077 70.03 27.4091C69.5722 26.8914 69.5436 26.5346 68.976 25.9519C68.615 25.5817 67.9746 25.2079 68.1069 24.6834C67.8824 24.3853 67.8725 24.5458 67.7845 24.4756C67.3686 24.1474 67.2705 23.7251 67.2153 23.6433C66.8645 23.127 66.6228 22.9715 66.3446 22.539C66.3058 22.6142 66.2614 22.6772 66.22 22.7468C66.6231 22.9982 66.781 23.174 67.1883 23.6765C67.0335 23.5237 66.877 23.373 66.7192 23.2237C66.6951 23.2936 66.6706 23.3631 66.6454 23.4315C68.1458 24.7645 67.5355 24.6595 66.3751 23.486C66.3678 23.2999 66.3547 23.1096 66.3446 22.9232C65.5486 22.351 65.3433 21.9224 64.5603 21.1577C64.4671 21.0667 64.067 20.8064 63.9101 20.6784C63.9124 20.6809 63.9146 20.6835 63.9169 20.686C63.7475 20.6906 63.8434 20.841 63.7925 20.931C63.7016 20.8697 63.6103 20.8089 63.5188 20.7488C63.3816 20.5341 63.489 20.5378 63.1044 20.2502C63.1066 20.3507 63.1077 20.4505 63.1089 20.5507C62.7025 20.2246 62.4825 19.9487 62.0704 19.6871C62.1534 19.7124 62.2355 19.7373 62.3186 19.7635C61.509 19.0725 62.4576 19.205 61.6679 18.9172C61.6484 18.8552 61.6299 18.7937 61.6099 18.7318C61.8909 18.915 62.1688 19.1033 62.4424 19.295C62.4813 19.2543 62.5204 19.2141 62.5582 19.1726C62.2591 18.9705 61.9549 18.7731 61.649 18.582C61.8867 18.7008 62.1244 18.8237 62.3595 18.9491C62.037 18.6803 61.7079 18.4173 61.3737 18.1615C61.6279 18.5803 61.1361 18.2793 61.1131 18.5092C60.5971 17.965 60.2189 17.4539 59.1468 17.0159C58.933 16.9313 58.9768 17.1123 58.489 16.658C58.5214 16.9284 57.7603 16.6567 57.7558 16.8973C57.9578 16.9869 58.1641 17.0859 58.3591 17.1748C58.1787 16.9957 58.2358 16.7931 58.5954 16.9145C59.0555 17.0691 59.5897 17.5429 59.679 17.3322C59.8391 17.438 59.9888 17.5346 60.1429 17.6389C60.0482 17.6474 59.9548 17.6575 59.8617 17.6677C60.3585 17.8621 60.6248 18.0679 60.7587 18.3242C60.2161 18.011 59.6665 17.7162 59.1074 17.4383C59.1827 17.4918 59.2587 17.5464 59.3335 17.6003C58.8519 17.4948 59.2075 17.8473 58.4289 17.4566C58.4652 17.4005 58.5005 17.3438 58.537 17.2875C58.1737 17.2897 57.4001 16.9012 57.5556 17.2084C57.3505 17.0361 57.3183 16.977 57.1381 17.0126C56.5878 16.5766 56.2512 16.2217 56.5745 16.1059C56.3212 16.035 56.067 15.9676 55.8149 15.9046C55.9289 16.021 56.0411 16.1376 56.1529 16.2556C55.7431 16.075 55.327 15.903 54.9095 15.7418C54.9374 15.546 55.736 16.0023 55.5547 15.7484C55.5185 15.6969 55.2656 15.6758 55.213 15.6352C54.6569 15.2 55.5928 15.7196 55.4649 15.5006C54.5385 15.0966 55.3898 15.116 53.9973 14.8704C53.9797 14.8067 53.9595 14.7411 53.9439 14.6786C53.4808 14.5249 53.4812 14.6557 53.0766 14.5581C52.8238 14.498 52.5655 14.1988 52.2467 14.2677C52.1911 14.2831 52.5871 14.6552 51.6121 14.3964C50.8518 14.2063 51.211 14.099 50.8071 13.9417C50.3994 13.7821 49.3964 13.8671 49.1546 13.5346C49.3717 13.6077 49.651 13.6757 49.8901 13.7517C49.9999 13.7131 50.1074 13.6752 50.2166 13.6378C49.6433 13.603 49.0687 13.4247 48.6714 13.5088C47.9445 13.1934 47.0694 13.3148 47.2794 13.5714C47.5292 13.5608 47.2707 13.4316 47.6075 13.5314C47.6372 13.59 47.6687 13.6486 47.698 13.7072C47.117 13.6388 46.711 13.6136 46.9913 13.4661C46.9007 13.4546 46.8108 13.4436 46.7199 13.4329C46.6946 13.5532 46.6714 13.6741 46.6465 13.7944C46.5379 13.8004 46.4288 13.8068 46.3202 13.8139C46.2022 13.7799 46.0822 13.7462 45.963 13.7133C46.1355 13.5307 46.4171 13.5316 45.4962 13.3871C45.4913 13.4536 45.4852 13.5197 45.4803 13.5862C44.9965 13.5182 44.8071 13.4341 44.4892 13.3801C44.297 13.3523 44.0602 13.3364 43.6933 13.353C44.0199 13.2393 44.2898 13.2539 44.4865 13.2677C44.7398 13.2903 44.8697 13.3092 44.8716 13.0473C45.0619 13.0801 45.2528 13.1151 45.4411 13.1514C45.472 13.085 45.5028 13.0186 45.5326 12.9524C45.2303 12.9526 44.8672 12.9912 44.4892 13.0433C43.5664 13.1819 42.6088 13.4032 42.1205 13.238C42.0423 13.2805 41.9638 13.3185 41.8854 13.3642C41.2232 13.2483 40.9603 13.6773 40.2629 13.5405C40.1909 13.5282 40.2822 13.1298 39.4073 13.2809C39.4368 13.3253 39.4612 13.4041 39.4885 13.4617C39.2957 13.4626 39.104 13.4636 38.9133 13.4668C38.8876 13.5169 38.8604 13.5673 38.8351 13.6178C39.1548 13.5773 39.4759 13.5416 39.8002 13.51C39.5352 13.5658 39.2709 13.6249 39.0106 13.6866C39.3666 13.6984 39.5221 13.6752 39.3341 13.8251C39.0375 13.8819 38.7433 13.9431 38.4521 14.0074C38.4282 14.0427 38.4028 14.0788 38.3776 14.1145C38.5406 14.1734 38.6966 14.2327 38.8549 14.296C38.0826 14.3644 37.3936 14.517 36.7704 14.4937C36.6639 14.491 36.9853 14.2846 36.335 14.5651C36.3085 14.5082 36.2773 14.4646 36.2505 14.4125C35.4781 14.8064 35.1784 14.8425 34.2827 15.0136C34.8753 14.9358 34.3547 15.031 34.2354 15.1394C34.1534 15.2132 34.5268 15.0779 34.4989 15.1355C34.4693 15.1921 34.046 15.5309 34.466 15.4084C35.3746 14.7151 35.7863 15.0452 37.0659 14.5365C36.8708 14.6335 36.6766 14.7327 36.4862 14.8331C36.59 14.8389 36.6831 14.845 36.7952 14.8517C36.0422 14.9746 36.4114 14.927 36.1275 15.0642C35.8502 15.2004 35.3073 15.4144 34.9505 15.5492C34.8376 15.5916 34.932 15.4721 34.6714 15.5513C34.4927 15.6047 34.0611 15.889 33.9031 15.7933C33.7975 15.7321 34.4731 15.2023 33.4167 15.5971C33.1853 15.5862 33.7007 15.4204 33.7085 15.4068C33.7617 15.2684 33.0835 15.4337 32.8109 15.6381C32.7892 15.6548 33.0611 15.6374 32.8133 15.7744C32.2284 16.1017 31.8457 16.1678 31.4007 16.2277C31.4223 16.391 31.0116 16.7867 30.3753 17.0555C30.3647 17.1116 30.356 17.1673 30.3459 17.2237C30.4294 17.1527 30.5136 17.0824 30.5983 17.0121C30.7154 16.9834 30.8315 16.9475 30.9469 16.9269C30.3549 17.2687 30.3659 17.5134 30.1181 17.7377C29.2801 18.5187 29.5822 17.6933 29.7141 17.5054C29.862 17.4681 30.0082 17.4383 30.1563 17.4058C30.1161 17.3655 30.0754 17.325 30.0361 17.2839C28.5557 18.118 29.6333 17.0973 28.8304 17.446C28.7734 17.7927 28.2535 18.1328 27.4792 18.4525C27.4051 18.5043 27.3305 18.5559 27.2572 18.6087C27.2672 18.6494 27.3014 18.6984 27.2961 18.7336C26.5254 19.3303 26.1475 19.1156 26.0469 19.1394C25.6113 19.2529 25.5022 19.6499 25.4097 19.7275C25.0146 20.061 24.8308 20.0772 24.4904 20.4353C24.1285 20.8227 24.453 20.6441 24.3826 20.8052C24.3259 20.9335 24.0302 21.2197 23.947 21.3825C23.9625 21.3 23.9847 21.2128 24.0008 21.1301C23.5552 21.4548 23.1882 21.722 22.7453 22.1588C22.5249 22.9091 21.685 22.949 22.2121 23.0974C22.6267 22.6847 22.8933 22.4889 23.1993 22.3532C22.9457 22.6376 22.6984 22.9256 22.4571 23.219C22.3425 23.2657 22.2504 23.2898 22.1217 23.3528C22.0182 23.6424 21.5565 24.1161 21.4216 24.3405C20.7956 25.3921 21.1864 25.2034 20.2722 25.9094C20.7085 25.2413 20.5812 25.1441 21.085 24.5296C20.8885 24.5933 20.6608 24.9308 20.7117 24.6386C20.27 25.2764 20.5213 25.1516 20.4313 25.4571C20.3543 25.7205 20.0637 26.1487 20.1813 26.1939C20.0962 26.1994 20.0196 26.1966 19.9345 26.2027C19.655 26.6147 19.3863 27.0318 19.1272 27.458C19.178 27.2404 19.2316 27.0223 19.2878 26.8052C19.1787 26.9268 19.0702 27.05 18.9627 27.1741C18.4835 28.3223 17.1869 30.0451 17.8314 29.9841C17.5904 30.5216 17.5006 30.56 17.2731 30.8102C17.2964 30.8596 17.3139 30.9051 17.3417 30.9561C17.1471 31.2865 17.1767 31.6159 17.0128 31.9098C16.8498 32.2045 16.6835 32.2298 16.8958 32.3649C16.751 32.5408 16.6195 32.7218 16.4831 32.9022C16.4909 33.0441 16.4991 33.1853 16.509 33.3251C16.4136 33.5067 16.3199 33.6901 16.2279 33.8741C16.3037 34.0137 16.0138 34.7596 15.9955 35.1206C15.7833 35.4062 15.3929 35.2903 15.2651 36.0808C15.3664 36.085 15.4674 36.0896 15.5687 36.0941C15.5044 36.2642 15.4415 36.4353 15.3797 36.6081C15.3456 36.6112 15.3119 36.613 15.2778 36.6163C15.3087 36.5282 15.3396 36.4415 15.3715 36.3539C15.2992 36.4191 15.2278 36.4833 15.1562 36.5482C15.1718 36.8375 15.1913 37.1261 15.2145 37.4143C15.3508 37.0606 15.4931 36.7102 15.6411 36.3636C15.602 36.8336 15.461 37.1345 15.4587 37.5479C15.2546 37.8659 15.2026 37.7246 15.0851 37.553C15.0714 37.6852 15.0577 37.8189 15.0456 37.9511C14.917 37.8376 14.7817 38.0408 14.9494 37.2808C14.8969 37.3244 14.8461 37.3697 14.7924 37.4121C14.7733 37.5389 14.7218 37.6135 14.7111 37.7546C14.682 38.1403 14.8913 38.473 14.986 38.4626C15.0351 38.4571 15.0107 38.0735 15.0752 38.1006C15.2317 38.1681 15.0038 38.9887 15.3918 37.8146C15.4185 38.2333 15.3239 38.3066 15.2194 38.7439C15.2795 38.7183 15.3392 38.6938 15.3992 38.6699C15.3397 38.8695 15.2822 39.0702 15.2266 39.2714C14.9872 38.9388 14.663 40.4607 14.6164 39.0409C14.5411 39.4487 14.4737 39.8568 14.4135 40.2663C14.3943 40.1783 14.3757 40.0902 14.3571 40.0019C14.3951 39.8177 14.4343 39.6351 14.4751 39.4518C14.392 39.6625 14.3112 39.8749 14.2322 40.0883C14.2369 40.6153 14.3205 40.8287 14.4234 41.0761C14.5708 40.4847 14.4277 40.669 14.4551 40.1981C14.532 40.2236 14.6069 40.2106 14.6849 40.2607C14.4914 40.4821 14.5356 41.282 14.5321 41.464C14.516 42.0208 14.3859 41.5739 14.3578 41.9465C14.3309 42.3205 14.4084 42.7635 14.2406 43.0648C14.3304 43.0617 14.4237 43.0399 14.506 43.0204C14.5209 43.5997 14.4203 43.4828 14.405 43.5427C14.1724 44.5019 14.3722 45.0272 14.4646 46.1186C14.4828 45.9775 14.4991 45.8356 14.5175 45.6939C14.7599 46.5058 14.6586 45.9536 14.6908 45.2389C14.7005 45.9081 14.8916 46.2789 14.9802 46.7406C15.0671 47.2026 15.0809 48.0086 15.0602 48.31C14.8625 47.6557 14.8517 46.9219 14.7701 46.1772C14.6851 46.2688 14.6142 46.3574 14.5212 46.4538C14.7488 46.8959 14.6499 47.1699 14.6405 47.324C14.6152 47.7747 14.7783 47.7403 14.6365 48.0296C14.6954 48.0109 14.7452 47.9964 14.8002 47.9783C14.8895 48.8888 14.9634 49.886 15.3089 50.4217C15.1771 50.5052 15.048 50.5751 14.9156 50.6686C15.1065 51.0277 15.0745 51.3787 15.1806 51.6924C15.2874 52.0038 15.3695 51.8536 15.5138 52.2121C15.5406 52.2782 15.5089 52.4411 15.6099 52.5943C15.7104 52.7521 16.2895 53.2476 15.9756 53.429C16.0747 53.7426 16.1617 54.0395 16.2642 54.3443C16.1399 54.056 16.021 53.7664 15.9058 53.4744C15.9059 53.7562 15.9092 54.0356 15.9174 54.3188C16.0014 54.3257 16.0868 54.3319 16.1693 54.3373C16.5003 54.9828 16.5749 55.5166 16.8908 56.1753C16.9442 56.2842 16.9677 55.9628 17.1495 56.4686C17.3352 56.9715 17.2456 57.4625 17.773 58.2347C17.8007 58.2747 18.118 58.4107 18.1457 58.77C18.1522 58.8522 17.9552 58.6005 17.9993 58.7729C18.0408 58.9466 18.3971 59.6339 18.3394 59.7405C18.3676 59.7139 18.3763 59.6522 18.3974 59.6124C18.4806 59.7167 18.5652 59.8217 18.6503 59.9262C18.6001 59.9717 18.5504 60.0181 18.5005 60.0635C19.0411 60.6347 19.4529 60.8171 20.0401 61.7725C19.932 61.461 19.8308 61.1493 19.7364 60.8395C19.6324 60.8075 19.5279 60.7749 19.4246 60.7427C19.163 60.3032 18.9071 59.8471 18.6691 59.393C18.5596 59.3598 18.451 59.3271 18.3414 59.2925C18.2811 59.169 18.2222 59.0465 18.1639 58.9224C18.2294 58.9248 18.2947 58.9274 18.3607 58.9306C18.2158 58.703 18.0741 58.4742 17.9361 58.2436C18.4765 58.5687 18.6596 59.5841 18.8635 59.3833C18.8885 59.5086 18.9144 59.6344 18.9411 59.7602C19.0833 59.7353 19.1772 59.9647 19.3965 60.3407C19.3974 60.2213 19.3929 60.0941 19.4005 59.9819C19.5475 60.3901 19.966 60.9931 20.1927 61.3662C20.2915 61.5301 20.1014 61.4323 20.1253 61.485C20.2471 61.7582 20.7205 62.1029 20.7821 62.2022C21.1479 62.8004 21.1885 63.3548 21.8565 63.7919C21.3757 63.1645 21.6423 63.5011 21.5492 63.2132C21.5197 63.1228 20.9329 62.302 21.7186 63.289C21.7903 63.4151 23.2214 65.248 22.5768 64.8159C22.8757 65.046 23.1277 65.2078 23.4143 65.4041C23.7178 66.3094 23.7949 65.7999 23.7753 65.4656C23.8756 65.5586 23.9726 65.6456 24.0768 65.7411C23.6851 65.7189 24.8259 66.7642 25.308 66.9814C25.4678 67.0585 25.1423 66.694 25.4752 66.9166C25.6122 67.0491 25.7681 67.2005 25.9166 67.3393C25.7796 67.0387 26.2697 67.3425 26.3581 67.2116C26.5635 67.5424 26.622 67.9489 26.3613 67.9572C26.6511 68.0896 26.9338 68.211 27.2182 68.3279C27.1244 68.2181 27.0301 68.1072 26.9388 67.9968C27.674 68.648 28.8856 69.1289 28.9006 69.5163C29.0166 69.5827 29.1357 69.6502 29.2476 69.7122C29.3101 69.6842 29.3714 69.6553 29.4337 69.627C29.9169 69.9597 30.4146 70.2826 30.9299 70.5956C30.4382 70.3848 30.2878 70.3954 29.8319 70.0735C29.9879 70.2323 30.1501 70.3924 30.3083 70.5476C31.1323 70.7781 31.3131 70.7519 32.4139 71.305C32.4609 71.332 33.2815 71.8372 33.3102 71.8607C33.4258 71.9771 33.1782 71.9771 33.2282 72.0325C33.361 72.1906 34.3618 72.8175 34.3335 72.8397C33.8884 73.1779 30.3064 71.6491 29.3879 71.0996C19.4466 66.1229 13.465 55.2104 13.4397 44.3406C13.4376 44.2285 13.3758 44.278 13.3726 44.2301C13.3542 43.9324 13.4541 43.6411 13.4596 43.5316C13.4712 43.2974 13.3793 43.425 13.3825 43.2534C13.4226 41.4789 13.6417 39.8161 13.9375 38.0695C13.9571 37.9557 14.0066 38.0844 14.0308 37.883C14.0426 37.7793 13.9959 37.4365 14.0426 37.2041C14.2057 36.3934 14.4034 35.7265 14.6374 34.8876C14.7649 34.4284 14.9848 33.748 15.1561 33.2436C15.2312 33.0207 15.2651 32.7725 15.3434 32.553C15.4551 32.2419 15.5283 32.3414 15.5519 32.2961C15.6563 32.0979 15.5625 32.029 15.642 31.8326C15.792 31.4683 15.8684 31.4764 16.0557 31.0146C16.1883 30.6843 16.4698 29.9156 16.6536 29.5032C17.1886 28.5911 17.8002 27.4196 18.3011 26.5702C18.5967 26.0682 18.7171 26.0827 18.8466 25.8849C19.3064 25.1915 19.5709 24.5957 20.0483 23.9701C20.6836 23.143 21.3605 22.4916 22.0544 21.7662C22.1677 21.6483 22.0722 21.609 22.1821 21.4911C22.5878 21.0553 23.1295 20.5069 23.5311 20.1611C23.9797 19.7751 24.2354 19.738 24.6606 19.3453C24.786 19.2307 24.7463 19.1039 24.9599 18.912C25.3037 18.604 25.7638 18.3914 26.0261 18.2146C26.3868 17.973 26.0058 18.0914 26.4954 17.7654C26.5157 17.7521 26.6386 17.7748 26.74 17.6999C27.0371 17.4829 26.9663 17.4433 27.4239 17.1534C27.4704 17.122 28.113 16.82 28.1748 16.7855C28.5276 16.5694 29.2725 16.1832 29.4837 16.0522C30.2352 15.5827 29.5657 15.7797 30.357 15.704C30.6165 15.495 30.8786 15.2893 31.1683 15.0805C30.9823 15.2346 31.8844 14.9314 31.9453 14.9031C32.4352 14.6451 32.0931 14.6611 32.7465 14.4211C31.9957 14.9984 33.5831 14.1259 33.9766 13.9984C35.8358 13.3298 37.5914 12.973 39.4986 12.6682C40.136 12.5653 41.0398 12.3967 41.7082 12.3383C41.8667 12.3239 41.7525 12.3963 41.8921 12.3853C42.0315 12.3742 41.8708 12.3181 42.0306 12.3083C42.9208 12.2567 43.6522 12.3298 44.4675 12.2197L44.4892 12.2195C44.5859 12.2083 44.6837 12.1946 44.7832 12.178C44.8282 12.2022 44.8266 12.2208 44.9011 12.2478C45.6638 12.1017 47.1179 12.3923 47.6522 12.4819C48.5013 12.6142 48.7284 12.5491 49.341 12.6619C50.1566 12.8101 51.3183 13.2614 50.8445 12.8338C51.4037 12.9394 51.9348 13.0615 52.4806 13.2363C52.5415 13.2559 52.4781 13.3233 52.5023 13.3314C52.6551 13.3843 52.7248 13.3279 52.831 13.3537C53.1181 13.4246 52.6305 13.3784 53.0422 13.4691C53.2589 13.5185 53.3981 13.4885 53.9879 13.6733C57.5428 14.7854 61.154 16.7464 64.1023 19.1622C64.3049 19.3278 64.2215 19.1573 64.4719 19.3707C65.353 20.1042 66.734 21.6133 67.4002 22.331C68.0738 23.0446 68.0092 22.8064 68.4483 23.2433C68.5324 23.3284 68.4193 23.2959 68.4879 23.3791C68.9506 23.9374 69.3973 24.6831 69.7267 25.1648C69.9448 25.4838 70.0102 25.3993 70.1709 25.6154C70.4098 25.9384 70.5508 26.3398 70.6637 26.5201C71.195 27.3694 71.6169 27.922 72.0261 28.7682C72.0288 28.7252 72.0358 28.6939 72.0407 28.6559C72.5659 29.6345 73.0392 30.6412 73.4582 31.671C73.4575 31.6147 73.4575 31.56 73.4568 31.5035C73.9382 32.7175 73.657 32.6652 74.0646 32.3878C74.1142 32.4716 74.1679 32.5602 74.214 32.6411C73.9713 32.6934 74.0832 33.4908 74.315 34.4659C74.3326 34.5359 74.7003 34.9424 74.4141 34.969C74.5156 35.0731 74.5821 35.1341 74.6696 35.223C74.644 35.4505 74.6177 35.68 74.5874 35.9052C74.6277 36.0119 74.6674 36.1207 74.7066 36.2281C74.7642 36.2315 74.8168 36.2053 74.8782 36.2282C75.0161 36.7419 75.1667 37.8238 75.2405 38.2353C75.4377 39.257 75.709 40.3031 75.6112 41.1215C75.6572 41.5137 75.7384 41.1138 75.7636 41.7032C75.7129 41.7731 75.6641 41.8387 75.6114 41.9109C75.8804 42.3774 75.738 42.4846 75.7 43.1424C75.6879 43.3378 75.692 43.5036 75.6991 43.6645L75.6068 43.2226C75.6943 43.3999 75.7846 43.5666 75.8704 43.7792C75.9091 43.8751 75.8373 43.8905 75.8678 43.9544C75.9695 44.1686 76.3312 44.7486 76.4007 44.9009C77.032 46.2795 77.5437 47.4773 78.0979 48.8108C78.1577 48.9541 78.1421 48.7413 78.2037 48.8897C78.3029 49.1283 78.142 49.0327 78.1971 49.172C78.3512 49.5603 78.4579 49.5171 78.6967 50.0483C79.4831 51.7973 80.2872 53.852 81.0828 55.6906C81.1079 55.748 81.1681 55.7176 81.196 55.7796C81.365 56.1585 81.4603 56.5748 81.6047 56.9286L82.1875 58.2028L80.7731 58.4641C80.7469 58.4678 80.7209 58.4718 80.6952 58.4762C80.0363 58.5879 79.5566 58.7642 78.9055 58.8729C77.6329 59.0856 76.488 59.2282 75.1788 59.4447C74.2178 59.6034 73.3717 59.7522 72.3602 59.9228L73.3046 58.5623C73.326 58.6732 73.3509 58.8098 73.3722 58.9305C73.7661 61.2143 74.0911 63.5072 74.2004 65.8849C74.2477 67.0742 74.2479 68.2761 74.0605 69.5458C73.802 70.7358 73.7165 72.403 71.7208 73.4226C71.0227 73.7036 70.3748 73.9111 69.7584 74.1365C69.6386 74.18 69.6652 74.1058 69.6298 74.1224C69.2953 74.2827 69.3016 74.3694 69.1145 74.265C68.7044 74.4775 68.6217 74.6504 68.1381 74.8855C67.8804 75.0168 67.9766 74.7375 67.6 75.066C67.2797 75.3751 67.7138 75.1796 66.6164 75.8223C66.5883 75.8401 66.3805 75.8452 66.1965 76.0392C66.015 76.2375 66.2936 76.0947 65.8478 76.5413C64.8081 77.5827 63.7183 79.1727 63.1988 80.9246C63.1553 81.0316 62.9178 82.1166 62.9099 82.3278C62.8751 82.7484 62.9746 82.6957 62.8973 83.2247C62.8388 83.6474 62.6868 83.9734 62.6449 84.4828C62.6407 84.5417 62.729 84.6579 62.6786 85.0252ZM46.6868 13.9034C46.5692 13.9977 46.3461 14.3508 45.6985 14.2089C45.6361 14.1956 45.985 13.9528 45.6213 13.8972C45.979 13.8836 46.332 13.8944 46.6868 13.903C46.6868 13.9031 46.6868 13.9033 46.6868 13.9034ZM60.1639 87.7904C60.1848 87.2582 60.2151 86.771 60.2596 86.2377C60.287 86.6039 60.3212 86.9534 60.3606 87.3059C60.294 87.4653 60.2284 87.6258 60.1639 87.7904ZM73.6112 38.8602C73.6113 38.8607 73.6113 38.8611 73.6114 38.8616C73.4802 38.3535 73.3371 37.8569 73.1799 37.3583C73.2261 37.4041 73.2724 37.4502 73.3184 37.4965C73.4579 37.8876 73.5887 38.2789 73.7121 38.6764C73.6786 38.7378 73.645 38.7992 73.6112 38.8602ZM74.3634 42.9413C74.3283 43.2788 74.2551 43.1976 74.188 43.383C74.1882 43.383 74.1883 43.383 74.1884 43.383C74.1751 43.4203 74.1637 43.5607 74.1572 43.6645L74.194 43.8404C74.2054 43.8713 74.2158 43.8986 74.2237 43.9182C74.2445 43.8822 74.263 43.8413 74.282 43.8019L74.2533 43.6645C74.2641 43.6552 74.275 43.6462 74.2858 43.6375C74.287 43.6464 74.2882 43.6554 74.2893 43.6645L74.315 43.7875C74.7224 44.4804 74.9746 45.9957 74.0418 44.2431C74.1053 44.248 74.168 44.2518 74.2315 44.2567C74.1767 44.1367 74.1234 44.014 74.0735 43.8931L74.0257 43.6645C74.0425 42.8219 74.1264 42.106 74.3634 42.9413ZM38.8482 14.5487C38.0723 14.8863 37.8057 14.9795 36.8033 15.1021C36.9275 15.0162 37.0531 14.9309 37.1799 14.8463C37.3553 14.8583 37.5293 14.8717 37.7047 14.8865C37.7051 14.8864 37.7056 14.8863 37.7061 14.8862C37.7264 14.8243 37.7471 14.7623 37.7666 14.7007C38.1252 14.6439 38.5012 14.5904 38.8482 14.5487ZM72.6198 67.0116C72.2469 67.2384 72.469 67.1733 72.3845 66.5124C72.3537 66.2835 72.2915 66.5074 72.2793 66.3652C72.2075 65.6003 72.443 65.5267 72.5792 65.6958C72.6033 66.1355 72.6175 66.5785 72.6198 67.0102C72.6198 67.0107 72.6198 67.0111 72.6198 67.0116ZM61.2476 82.0195C61.2475 82.02 61.2474 82.0205 61.2473 82.021C61.1551 82.0218 61.2034 81.7017 61.0398 82.038C61.1006 81.7672 61.1665 81.5003 61.2413 81.2244C61.2278 81.3064 61.2139 81.3907 61.2013 81.4739C61.2494 81.4099 61.2982 81.3467 61.3467 81.2845C61.2732 81.1624 61.3544 81.0864 61.4684 80.8223C61.3404 80.8664 61.2124 80.9122 61.0843 80.9606C61.2061 80.6492 61.3477 80.3087 61.4896 80.0038C61.5172 80.0091 61.5448 80.0143 61.5724 80.0196C61.58 79.8908 61.5936 79.7493 61.6066 79.6153C61.6503 79.5937 61.6932 79.5736 61.7368 79.5527C61.7706 79.3966 61.8036 79.2488 61.8434 79.0905C61.9369 79.0788 61.8279 79.4099 62.0582 78.8369C62.0562 79.0405 62.0545 79.2529 62.0637 79.4493C61.7162 80.2886 61.4532 81.144 61.2476 82.0195ZM72.0454 60.9495C72.1933 61.9064 72.0963 61.6464 71.8871 61.4465C71.9412 61.2853 71.9933 61.1151 72.0454 60.9495ZM64.9193 21.8681C64.6305 21.7657 64.3414 21.6667 64.0503 21.5671C63.5857 21.2436 63.2953 20.7095 63.6792 20.917C64.1417 21.1711 64.4626 21.6198 64.9193 21.8681ZM53.8327 15.2855C54.4746 15.5635 53.8058 15.4912 53.6317 15.5257C53.4927 15.335 53.2333 15.2634 52.8266 15.1266C53.2148 15.2305 53.7259 15.2391 53.8328 15.2851C53.8327 15.2852 53.8327 15.2854 53.8327 15.2855ZM71.3411 30.9907C71.4625 31.2411 71.6082 31.4803 71.6692 31.726C71.5311 31.704 71.4268 31.207 71.4111 31.6028C71.3364 31.4421 71.2602 31.282 71.183 31.1242C71.2963 31.1948 71.2823 31.0355 71.341 30.9915C71.3411 30.9913 71.3411 30.991 71.3411 30.9907ZM79.2894 56.9711C79.8592 57.0179 79.9538 56.9416 80.4868 56.7539L80.0159 57.6233C80.0154 57.6225 80.0148 57.6216 80.0142 57.6207C80.0233 57.6061 80.038 57.6015 80.0572 57.6053L80.4942 56.7983C80.435 56.9238 79.9101 57.1656 79.5551 57.2625C79.4671 57.1653 79.3787 57.0681 79.2894 56.9711ZM21.3376 62.2838C21.1405 62.2764 20.5269 61.5125 20.2886 61.0933C20.3394 61.1275 20.3906 61.1615 20.4418 61.1951C20.73 61.5638 21.0308 61.9296 21.3376 62.2838ZM52.633 15.0601C52.701 15.0841 52.7656 15.1062 52.8266 15.1266C52.7576 15.108 52.6919 15.0863 52.633 15.0601ZM24.8932 20.4051C24.982 20.1486 24.4204 20.5656 25.1016 20.058C25.1015 20.0579 25.1014 20.0578 25.1013 20.0577C25.5555 19.7269 25.6602 19.656 26.0766 19.3472C26.0353 19.6015 25.2537 20.2912 26.4101 19.4405C26.4253 19.4294 26.3315 19.3676 26.5237 19.2421C26.5833 19.2035 26.8155 19.1375 27.1102 18.959C27.2057 18.901 27.9041 18.4432 26.9752 19.1001C27.0745 19.1804 27.098 19.3171 27.1701 19.4123C26.836 19.6969 26.4269 19.7029 26.0593 20.0004C25.5181 20.4422 25.4148 20.8587 25.1044 20.7026C25.4906 20.2587 26.2926 19.6273 26.5098 19.7082C26.9576 19.3731 26.9997 19.1513 26.5856 19.3591C25.1003 20.6374 25.9964 19.4891 24.7606 20.6975C24.7746 20.7444 24.7534 20.827 24.7891 20.8512C24.2934 21.0821 24.8593 20.4957 24.8932 20.4051ZM28.4005 18.23C28.1648 18.4905 27.9346 18.7558 27.7129 19.0221C27.6268 18.8963 27.6981 18.6756 28.1017 18.3098C28.2008 18.283 28.3029 18.2549 28.4005 18.23ZM14.8277 41.9987C14.9079 42.0524 14.9765 42.1858 15.0509 42.2836C14.9545 42.3787 14.8597 44.8018 14.8027 43.5678C14.7901 43.3864 14.9738 42.3017 14.8277 41.9987ZM75.5074 57.7315C75.8013 57.739 76.0939 57.7468 76.3864 57.7544C75.9562 57.8624 75.5259 57.9713 75.0959 58.08C75.2335 57.9638 75.3698 57.8477 75.5074 57.7315ZM61.3917 18.8259C61.4894 18.8972 61.0941 18.7632 61.496 19.0194C61.1628 18.8764 60.8536 18.7435 60.5271 18.6141C60.4699 18.5125 60.411 18.4106 60.3522 18.3093C60.2653 18.2955 60.1772 18.2811 60.0903 18.2681C60.1731 18.2266 60.2506 18.184 60.3369 18.1434C60.7405 18.5995 60.9551 18.512 61.3917 18.8259ZM72.471 32.0859C72.3526 32.2474 71.9332 31.5037 72.227 32.2849C72.0625 32.181 71.9136 31.9691 71.7082 31.5281C71.7161 31.4393 71.7233 31.3506 71.7304 31.2615C71.6206 31.2992 71.5307 31.2021 71.3411 30.9907C71.3411 30.9905 71.3411 30.9902 71.3411 30.9899C71.0186 30.3291 71.0665 30.3543 71.1574 30.1093C71.4112 30.8599 71.572 30.805 71.8897 31.2523C72.1068 31.5603 72.2647 32.0192 72.471 32.0859ZM15.089 39.4219C15.1581 39.9917 15.3511 39.5137 15.0834 40.4691C15.0537 40.4022 15.0246 40.3349 14.9954 40.2676C15.0225 39.9853 15.0537 39.7034 15.089 39.4219ZM72.8425 34.8691C73.0799 34.7329 73.1159 34.1645 72.6766 34.2171C72.75 34.7253 72.9079 34.4167 72.8425 34.8691ZM54.1924 14.9676C55.1222 15.3058 54.8349 15.5284 54.4105 15.533C54.3707 15.4609 54.3305 15.3889 54.2911 15.3177C54.1212 15.2847 53.951 15.2532 53.7808 15.2228C53.917 15.137 54.0543 15.0517 54.1924 14.9676ZM77.7997 51.3643C77.3237 50.7495 78.0291 52.1523 77.7095 51.7172C77.4543 51.3698 77.4074 50.7854 77.6011 50.9295C77.6625 51.0616 77.7296 51.2092 77.7991 51.363C77.7993 51.3634 77.7995 51.3639 77.7997 51.3643ZM76.0018 47.3883C75.8657 47.5829 75.8483 47.3957 76.1204 47.9269C76.1981 48.0787 76.67 49.3478 76.5965 48.7605C76.403 48.3179 76.2012 47.8491 76.0018 47.3883ZM42.9422 13.7238C42.9241 13.633 43.9615 13.3896 44.1023 13.4382C44.1023 13.438 44.1023 13.4379 44.1023 13.4378C44.4705 13.5582 43.3625 13.6139 43.8492 13.7784C42.7834 13.6606 42.5065 14.0813 42.5412 13.5661C43.1566 13.5019 42.8715 13.6271 42.9422 13.7238ZM30.9582 70.5215C30.9587 70.5217 30.9591 70.5219 30.9595 70.5222C30.897 70.4876 30.4469 70.1086 30.5306 70.1008C31.1231 70.4511 30.9775 70.4728 31.6212 70.6299C31.6338 70.6859 31.6425 70.7386 31.6578 70.7962C31.4129 70.709 31.2595 70.6954 30.9582 70.5215ZM14.5975 44.6299C14.5682 44.376 14.6607 43.9121 14.6586 43.6239C15.0143 44.5395 14.7216 45.6373 14.5975 44.6299ZM66.4222 74.052C66.4227 74.0515 66.4233 74.051 66.4239 74.0505C66.4238 74.0508 66.4236 74.0511 66.4236 74.0514C66.4231 74.0516 66.4226 74.0518 66.4222 74.052ZM20.2701 26.1852C20.232 26.1984 20.2046 26.2019 20.1858 26.197C20.1844 26.196 20.183 26.1951 20.1816 26.1941C20.21 26.1922 20.2392 26.1896 20.2701 26.1852ZM40.8136 13.9458C40.3643 13.8749 41.7888 13.5074 42.2468 13.5267C42.2191 13.5853 42.2181 13.6365 42.1488 13.707C41.7695 13.5889 40.889 13.9547 40.8136 13.9458ZM69.1332 26.6793C68.4868 25.7435 69.7357 26.685 69.4428 26.9567C69.4357 26.9585 69.1506 26.7026 69.1332 26.6793ZM49.7223 14.0969C50.0326 14.0047 49.4684 13.8565 50.3783 14.0569C50.424 14.1049 50.4693 14.153 50.5144 14.2012C50.2513 14.1629 49.987 14.1283 49.7223 14.0969ZM64.6545 20.6487C63.5077 19.7391 62.3059 19.0463 62.8036 19.9325C62.8968 19.9887 62.9906 20.0466 63.0833 20.1038C63.219 19.9595 63.4671 20.2915 63.9081 20.6762C64.023 20.6702 64.2809 20.8701 64.3708 20.8608C64.5457 20.8427 64.3217 20.5246 64.6545 20.6487ZM72.7003 70.247C72.6738 70.2154 72.6469 70.1845 72.6204 70.1534C72.6411 69.921 72.6493 69.6958 72.6508 69.4663C72.7085 69.5128 72.7662 69.5584 72.8229 69.6084C72.7888 69.8282 72.7523 70.0271 72.7009 70.2456C72.7007 70.2461 72.7005 70.2465 72.7003 70.247ZM29.3822 17.1547C29.4548 17.5442 29.8044 17.2515 30.5501 16.6579C30.1588 16.814 29.7662 16.9814 29.3822 17.1547ZM74.7504 41.0788C74.6476 41.1177 74.545 41.1557 74.4422 41.1953C74.5894 41.6756 74.7024 41.5795 74.8249 41.3313C74.8004 41.2463 74.7756 41.1633 74.7504 41.0788ZM76.6851 47.6761C76.6236 47.4805 76.5871 47.61 76.5802 47.5898C76.4146 47.0992 76.4213 47.0169 76.1089 46.4628C76.0573 46.4007 76.0052 46.3403 75.9529 46.2785C75.8672 46.6353 76.0629 46.7816 76.1918 47.401C76.2167 47.2683 76.2418 47.136 76.267 47.0032C76.3902 47.325 76.5131 47.6455 76.6363 47.9674C76.6741 47.9954 76.7118 48.0236 76.7496 48.0516C76.7281 47.9273 76.7085 47.798 76.6851 47.6761ZM71.1377 72.2668C70.8192 72.3864 70.5089 72.4904 70.187 72.6C70.1946 72.6553 70.2027 72.7108 70.2102 72.7662C70.5234 72.6017 70.829 72.4413 71.1377 72.2668ZM23.947 21.3825C23.941 21.4149 23.9355 21.4469 23.9325 21.4772C23.9175 21.4582 23.9256 21.4244 23.947 21.3825ZM31.633 71.1824C31.9557 71.377 32.4609 71.576 32.8427 71.7457C32.8613 71.6084 31.8907 71.224 31.5911 70.9848C31.5258 70.9808 31.491 71.0978 31.633 71.1824ZM55.4717 15.4497C55.5854 15.421 55.6994 15.3933 55.8127 15.3655C56.025 15.4592 56.2352 15.5554 56.4471 15.6548C56.4755 15.6062 56.5041 15.5571 56.5326 15.5086C55.5542 15.1736 55.8345 15.1222 55.4116 14.7856C55.4342 15.0073 55.4532 15.2282 55.4717 15.4497ZM63.1294 78.589C63.4277 77.9457 63.5232 77.688 63.1636 77.9554C63.0627 78.2049 62.9802 78.4392 62.8973 78.6905C62.975 78.6549 63.0526 78.6207 63.1294 78.589ZM16.4729 32.4394C16.3135 33.0401 16.0982 32.9747 16.0196 33.5897C16.1629 33.2956 16.311 33.0044 16.4623 32.7172C16.4652 32.6254 16.4692 32.5314 16.4729 32.4394ZM38.6499 13.2137C38.3814 13.1844 37.9582 13.6413 37.1677 13.5436C37.012 13.6643 36.9221 13.7667 36.7938 13.8812C36.6869 13.8178 36.5675 13.7568 36.4638 13.694C36.4633 13.6942 36.4628 13.6943 36.4624 13.6944C35.8167 13.8948 36.2691 13.889 36.2774 13.9824C36.2799 14.0205 35.7853 14.09 35.9569 14.1295C36.2489 14.1924 37.2012 13.8699 37.2459 14.0426C36.8877 14.0657 36.2393 14.2861 36.4646 14.3478C36.7079 14.4148 37.2812 14.051 37.7111 14.067C37.0676 13.9227 38.2954 13.7405 38.4713 13.931C39.1259 13.6409 38.495 13.6815 37.7585 13.8487C38.1681 13.5925 37.5329 13.8192 37.3959 13.7117C37.8417 13.5144 39.4158 13.2971 38.6499 13.2137ZM68.8271 25.0496C68.52 24.6586 68.1021 23.9936 67.7741 23.824C67.5857 23.7252 68.035 24.3588 67.5951 24.0316C67.913 24.3914 68.0183 24.4475 68.0533 24.3128C68.1331 24.3896 68.2132 24.4682 68.292 24.5461C68.3068 24.5995 68.3224 24.6538 68.3368 24.7071C68.4085 24.7241 68.4802 24.7418 68.5512 24.7583C68.6162 24.8563 68.6814 24.9558 68.7449 25.0547C68.7716 25.0517 68.8018 25.0583 68.8271 25.0496ZM14.93 49.9303C14.9027 49.7963 14.8766 49.6634 14.8508 49.529C14.8267 49.5487 14.8021 49.5714 14.7777 49.5934C14.7583 49.6096 14.7388 49.6257 14.7194 49.642C14.7809 49.5486 14.7999 48.886 14.6782 48.627C14.6168 48.4959 14.5123 48.8315 14.4043 48.2509C14.4697 48.6737 14.5511 49.0613 14.6355 49.4671C14.5852 49.4382 14.5347 49.4107 14.4845 49.3815C14.4845 49.3817 14.4845 49.382 14.4844 49.3822C14.4981 49.5201 14.5125 49.6597 14.528 49.7976C14.662 49.843 14.7958 49.8866 14.93 49.9303ZM74.9224 40.6591C74.7893 40.1989 74.7234 40.0486 74.6084 40.2842C74.6084 40.2847 74.6084 40.2852 74.6083 40.2857C74.6896 40.4526 74.7694 40.6201 74.8478 40.7876C74.8728 40.7453 74.8978 40.703 74.9224 40.6591ZM20.8746 24.0371C20.6711 25.1474 21.8219 23.202 21.4186 23.415C21.3979 23.4234 20.9776 23.9994 20.8746 24.0371ZM54.0726 14.7531C54.3329 14.8355 54.5922 14.9219 54.8508 15.0116C54.8142 14.9281 54.7757 14.8444 54.7382 14.7609C54.5161 14.7558 54.2938 14.7533 54.0726 14.7531ZM65.1043 76.2471C65.3915 76.1552 65.9256 75.7423 66.0924 75.4167C65.9429 75.5098 65.7951 75.6075 65.6473 75.7118C65.8901 75.4753 66.1391 75.2538 66.4048 75.0438C66.3034 74.8667 66.0412 75.1839 65.5533 75.5301C65.4792 75.5762 64.86 75.8036 64.8578 76.0899C64.8574 76.1426 65.3171 75.7252 65.0921 76.1093C65.2289 75.9847 65.3505 75.8666 65.4849 75.7522C65.5271 75.7799 65.5692 75.8078 65.6121 75.835C65.4398 75.9652 65.2676 76.1052 65.1043 76.2471ZM66.9571 22.8374C66.5009 22.3278 66.3785 22.3279 66.1771 22.3269C66.4092 22.5414 66.638 22.7599 66.8637 22.9819C66.8944 22.9334 66.9263 22.8863 66.9571 22.8374ZM70.0238 73.3762C70.3762 73.2706 70.1885 73.2147 70.3185 73.1427C70.7133 72.9257 71.0422 72.8478 71.4167 72.6856C71.5413 72.632 71.664 72.5612 71.7806 72.4689C71.7542 72.5142 71.7282 72.5558 71.6987 72.5988C71.6993 72.5985 71.6999 72.5981 71.7004 72.5978C72.4451 72.1483 72.6189 71.6683 72.7398 71.4526C72.8424 71.2264 72.8342 71.178 72.77 71.2648C72.6347 71.4036 72.293 72.2035 71.3861 72.613C71.3552 72.6265 71.3236 72.6404 71.2917 72.6543C71.2405 72.6278 71.1908 72.6004 71.1397 72.5739C70.4977 72.9067 69.9212 73.189 70.0238 73.3762ZM27.4038 18.0046C27.3631 17.9992 27.4824 17.7076 27.1217 18.0501C26.9467 18.4787 27.3977 18.0157 27.5852 18.0111C27.4887 18.1043 27.3903 18.199 27.2967 18.2923C27.987 17.9133 28.0572 17.8065 27.7128 17.8054C27.6883 17.8059 27.4441 18.0099 27.4038 18.0046ZM23.2966 21.1607C23.4779 21.5026 24.0818 20.7018 23.9795 20.6426C23.8751 20.7317 23.8413 20.8494 23.715 20.9291C23.5884 21.0097 23.5001 20.9715 23.2966 21.1607ZM49.6677 13.2993C49.6398 13.2924 49.3752 13.0891 49.3842 13.2158C49.6958 13.5591 50.4377 13.5094 50.3338 13.3865C50.0961 13.3459 49.9303 13.3599 49.6678 13.2989C49.6678 13.299 49.6677 13.2991 49.6677 13.2993ZM62.9343 79.8056C62.9431 79.8007 63.2762 79.1946 63.2624 79.0993C63.2329 79.0076 63.1856 78.9427 63.1489 78.8622C63.0336 79.2221 62.6976 79.9184 62.9349 79.8043C62.9347 79.8047 62.9345 79.8051 62.9343 79.8056Z" fill="var(--stroke-0, #3B374F)"/>
<path id="Vector_4" d="M25.8659 86.2914C25.7201 86.3359 25.8156 86.1875 25.5979 86.286C25.5832 86.2655 25.568 86.2448 25.5533 86.2242C25.6339 86.219 25.7144 86.2137 25.795 86.2085C25.8188 86.2361 25.8425 86.2637 25.8663 86.2914C25.8661 86.2914 25.866 86.2914 25.8659 86.2914ZM26.8758 86.3291C26.6458 86.3038 26.5845 86.2235 26.3722 86.3103C26.4512 86.3172 26.5301 86.3243 26.609 86.3312C26.5478 86.3613 26.4866 86.3916 26.4257 86.4218C26.4558 86.4326 26.4859 86.4434 26.5157 86.4543C26.3785 86.4681 26.241 86.4818 26.1035 86.4956C26.1235 86.4833 26.144 86.4709 26.164 86.4586C26.0526 86.4102 26.0222 86.3671 26.0014 86.3013C25.969 86.3071 25.9368 86.3128 25.9043 86.3186C25.9596 86.2852 26.0149 86.2519 26.0701 86.2186C26.1243 86.2475 26.1846 86.2798 26.2351 86.3065C26.4502 86.2637 26.3305 86.1882 26.2856 86.1489C26.2244 86.0953 26.3266 86.1074 26.2838 86.0677C26.2771 86.0614 26.197 86.0606 26.1956 86.0481C26.1893 85.9849 26.2317 85.862 26.4188 85.9338C26.3947 86.038 26.5449 86.1268 26.49 86.2289C26.7063 86.2019 26.7799 86.2557 26.8758 86.3291ZM26.1871 84.4165C26.2922 84.448 26.2498 84.5123 26.1769 84.5558C26.1769 84.5559 26.1769 84.5559 26.1769 84.5559C26.1608 84.5655 26.0212 84.5872 26.0269 84.5559C26.0366 84.505 26.2564 84.4803 26.1072 84.4535C26.135 84.4416 26.1597 84.429 26.1871 84.4165ZM26.1741 84.3056C26.228 84.2744 26.3936 84.2885 26.3487 84.3277C26.3489 84.3277 26.349 84.3277 26.3491 84.3277C26.3304 84.3441 26.1995 84.312 26.3324 84.3706C26.229 84.3826 26.135 84.3943 26.035 84.4062C26.0333 84.3918 26.0306 84.3787 26.0293 84.3637C26.1991 84.3738 26.1207 84.3369 26.1741 84.3056ZM26.3253 85.881C26.1724 85.8761 26.1734 85.8967 26.0673 85.9317C26.0724 85.8986 26.0777 85.8655 26.0827 85.8326C26.1637 85.8488 26.2443 85.8648 26.3253 85.881ZM26.3016 86.6587C26.3016 86.6588 26.3016 86.6588 26.3016 86.6589C26.3257 86.6697 26.3499 86.6806 26.3736 86.6913C26.3191 86.6978 26.2648 86.7042 26.2102 86.7107C26.2614 86.749 26.3126 86.7875 26.3641 86.8258C26.1975 86.8212 26.2246 86.7524 26.1082 86.7145C26.1584 86.6582 26.2551 86.631 26.3963 86.6273C26.3649 86.6378 26.333 86.6482 26.3016 86.6587ZM26.9658 77.4426C26.9197 77.4298 26.8735 77.4172 26.8273 77.4044C26.8062 77.4214 26.7901 77.4383 26.7657 77.4555C26.9665 77.5004 26.7889 77.5046 26.8012 77.5635C26.8394 77.744 27.1512 77.6961 26.6945 77.8591C26.7162 77.7282 26.5016 77.7785 26.3363 77.6996C26.4621 77.6833 26.7459 77.7615 26.8048 77.7085C26.6716 77.6172 26.5476 77.5294 26.4616 77.4282C26.4399 77.4311 26.4181 77.4341 26.3963 77.437C26.41 77.4531 26.4238 77.469 26.4375 77.4851C26.3793 77.4677 26.3216 77.4508 26.2627 77.4332C26.3949 77.4554 26.321 77.3987 26.4729 77.4063C26.5405 77.4097 26.6342 77.4348 26.6988 77.4496C26.734 77.4114 26.7661 77.3722 26.8003 77.3336C26.8541 77.3536 26.908 77.3736 26.9619 77.3935C26.9635 77.4098 26.9647 77.426 26.9664 77.4423C26.9662 77.4425 26.966 77.4426 26.9658 77.4426ZM26.2631 69.2265C26.4204 69.2749 26.4464 69.363 26.2714 69.4094C26.2687 69.3483 26.2658 69.2875 26.2631 69.2265ZM26.5127 86.6237C26.486 86.6291 26.4595 86.6345 26.4328 86.6399C26.3833 86.6157 26.3341 86.5914 26.2846 86.5671C26.3619 86.5625 26.4392 86.5577 26.5161 86.5529C26.5151 86.5765 26.5137 86.6001 26.5127 86.6237ZM26.4267 85.0736C26.4314 85.0913 26.4288 85.0929 26.4178 85.115C26.4179 85.115 26.4179 85.1149 26.418 85.1149C26.4139 85.1236 26.3688 85.1969 26.3093 85.1887C26.3083 85.1523 26.3093 85.1136 26.3093 85.0764C26.3484 85.0753 26.3872 85.075 26.4267 85.0736ZM26.392 85.5015C26.3918 85.5015 26.3917 85.5016 26.3916 85.5016C26.3825 85.5149 26.3641 85.5274 26.3608 85.541C26.2672 85.4919 26.4351 85.4841 26.3876 85.4395C26.3398 85.3948 26.2471 85.3672 26.4772 85.3293C26.5117 85.3434 26.561 85.3586 26.6011 85.3731C26.5091 85.4365 26.5957 85.4536 26.6864 85.5044C26.588 85.5034 26.4903 85.5025 26.392 85.5015ZM26.5003 78.2461C26.6141 78.2582 26.5024 78.2718 26.5011 78.2732C26.501 78.2731 26.5008 78.2731 26.5007 78.2731C26.6061 78.3804 26.4377 78.2591 26.42 78.3604C26.3916 78.3453 26.3615 78.3305 26.3328 78.3156C26.3876 78.2925 26.4498 78.2687 26.5003 78.2461ZM26.4896 81.733C26.4565 81.7339 26.4233 81.7351 26.3902 81.7361C26.3979 81.6752 26.2675 81.6597 26.3862 81.6092C26.421 81.6504 26.4556 81.6917 26.49 81.733C26.4899 81.733 26.4898 81.733 26.4896 81.733ZM26.6676 84.7668C26.7309 84.8343 26.7588 84.8842 26.6584 84.9491C26.6582 84.9491 26.6581 84.9492 26.658 84.9492C26.6518 84.9529 26.5825 84.9349 26.565 84.9397C26.5754 84.9531 26.5913 84.9669 26.6037 84.9804C26.5482 84.9823 26.4927 84.984 26.4375 84.9858C26.4533 84.9478 26.469 84.9097 26.4847 84.8716C26.4523 84.8772 26.4201 84.883 26.3876 84.8886C26.3709 84.8562 26.3542 84.8239 26.3375 84.7915C26.4285 84.8028 26.5195 84.814 26.6108 84.8252C26.6299 84.8057 26.6482 84.7863 26.6676 84.7668ZM26.8522 80.7197C26.816 80.7304 26.7554 80.7106 26.7243 80.7272C26.6936 80.7438 26.761 80.7745 26.659 80.7673C26.6453 80.7449 26.6295 80.7214 26.6152 80.6986C26.4312 80.772 26.5977 80.8452 26.3705 80.8464C26.4293 80.7759 26.402 80.718 26.3391 80.6498C26.5194 80.6526 26.6754 80.7208 26.8447 80.6779C26.847 80.6917 26.8504 80.7062 26.8518 80.7196C26.8519 80.7196 26.852 80.7197 26.8522 80.7197ZM28.7742 87.6096C28.7605 87.6513 28.8341 87.7468 28.729 87.7995C28.7031 87.8125 28.3677 87.8557 28.3235 87.8555C28.1746 87.8542 28.1543 87.8014 28.0573 87.8579C28.0563 87.8389 28.0507 87.8205 28.048 87.8016C27.948 87.805 27.8482 87.8084 27.7485 87.8116C27.7635 87.8346 27.7787 87.8576 27.794 87.8805C27.7609 87.8817 27.7277 87.8828 27.6946 87.8839C27.6939 87.8013 27.5661 87.8501 27.4469 87.8073C27.3867 87.8467 27.3268 87.8864 27.2666 87.9257C27.2739 87.9031 27.2794 87.8763 27.2881 87.8563C27.1184 87.8536 27.1589 87.9013 27.1274 87.9095C26.9498 87.9556 27.0394 87.721 26.7926 87.7018C26.7651 87.7393 26.7384 87.7786 26.7113 87.8169C26.6808 87.806 26.6503 87.7948 26.6199 87.7838C26.7902 87.6969 26.8505 87.5994 26.9565 87.4982C26.9495 87.489 26.9423 87.4798 26.9356 87.4708C26.859 87.4735 26.7827 87.476 26.7061 87.4787C26.6971 87.4649 26.6881 87.4509 26.6791 87.4371C26.9314 87.4778 26.9279 87.4215 27.0819 87.3534C27.1705 87.3896 27.1168 87.4343 27.282 87.4312C27.1549 87.3069 27.3345 87.1614 27.191 87.0406C27.1555 87.0106 26.9424 87.0107 26.9621 86.9401C26.9855 86.9425 27.0278 86.9429 27.0586 86.9445C26.9565 86.8225 26.8955 86.7484 26.9996 86.6216C26.923 86.629 26.8461 86.6362 26.7695 86.6435C26.8076 86.6704 26.8464 86.6973 26.8845 86.7241C26.758 86.7424 26.7022 86.7154 26.7036 86.7957C26.7046 86.8615 26.7604 86.8223 26.7979 86.8402C26.8491 86.8644 26.7484 86.8857 26.8056 86.9117C26.8494 86.9319 26.9538 86.9101 26.9273 86.9626C26.7922 86.9415 26.6526 86.9199 26.5157 86.8987C26.5461 86.8858 26.5771 86.8731 26.6079 86.8603C26.644 86.8733 26.6797 86.886 26.7158 86.899C26.6509 86.8533 26.5897 86.8102 26.5224 86.763C26.7178 86.7784 26.6446 86.7296 26.6215 86.7031C26.5854 86.6618 26.7199 86.6972 26.6974 86.6701C26.6747 86.6431 26.5244 86.6139 26.5565 86.565C26.6435 86.5912 26.7215 86.5556 26.8018 86.5625C26.8821 86.5694 26.8999 86.6211 26.9875 86.5714C26.9209 86.4759 26.6152 86.5795 26.5656 86.515C26.5061 86.4375 27.0045 86.4191 27.1117 86.4422C27.196 86.4604 27.179 86.5229 27.263 86.5412C27.4146 86.4292 27.1154 86.4282 27.0568 86.4091C26.8437 86.3395 27.4125 86.3862 27.2068 86.3038C27.3132 86.3054 27.4088 86.3066 27.5109 86.3082C27.4915 86.294 27.4657 86.2845 27.4503 86.2673C27.243 86.318 27.2519 86.2765 27.2516 86.2553C27.2509 86.2217 27.1498 86.2735 27.1237 86.2646C27.0538 86.2407 27.0856 86.2028 26.9942 86.226C27.0367 86.2156 27.0794 86.2043 27.1215 86.1936C27.0686 86.1544 26.6245 86.0624 26.7142 86.15C26.5492 86.1418 26.6285 86.1135 26.6536 86.0914C26.6787 86.0692 26.5736 86.0697 26.593 86.0502C26.6707 85.9729 26.8504 86.0235 26.9913 86.0357C26.8942 85.9336 26.83 86.0336 26.7651 85.8864C26.6504 85.8722 26.5279 85.9402 26.4616 85.8835C26.661 85.8731 26.8043 85.8314 26.8705 85.7501C26.8247 85.7422 26.7784 85.7344 26.7326 85.7265C26.9166 85.6821 27.108 85.7048 26.8798 85.6226C27.2997 85.6667 27.0311 85.6364 27.202 85.5629C27.2365 85.548 27.3236 85.5825 27.3678 85.5616C27.3877 85.5522 27.3219 85.5292 27.3727 85.5061C27.3978 85.4949 27.5597 85.4422 27.4828 85.4057C27.2794 85.4324 27.1063 85.3631 26.938 85.4226C26.9795 85.3127 26.8818 85.2358 27.1592 85.3589C27.2208 85.331 27.2821 85.3031 27.3433 85.2752C27.2948 85.2557 27.2467 85.2361 27.1985 85.2166C27.3657 85.2136 27.4126 85.2166 27.3832 85.14C27.4227 85.1732 27.4628 85.2063 27.5026 85.2397C27.5363 85.2408 27.5714 85.2455 27.6042 85.2443C27.54 85.2035 27.5123 85.0884 27.4678 85.0605C27.4233 85.0326 27.4112 85.0864 27.368 85.0784C27.012 85.0115 27.2746 85.0168 27.2135 84.9688C27.1773 84.9406 27.1381 85.0079 27.1227 84.9928C27.0663 84.9369 27.2555 84.911 27.2579 84.8614C27.1505 84.879 27.0414 84.8965 26.9331 84.9137C26.9388 84.8617 26.9397 84.8038 26.9052 84.7554C26.8918 84.7365 26.8119 84.7508 26.8066 84.7477C26.7791 84.7323 26.7357 84.6698 26.7353 84.6632C26.7347 84.6133 26.8453 84.6119 26.8514 84.5635C26.8607 84.5825 26.8692 84.6003 26.8782 84.6189C27.0575 84.6274 27.2369 84.636 27.4165 84.6445C27.4296 84.597 27.4424 84.5495 27.4554 84.5019C27.3955 84.5367 27.3359 84.5716 27.276 84.6064C27.1311 84.552 26.9859 84.4976 26.8407 84.4433C26.9297 84.4149 27.0187 84.3867 27.1077 84.3584C27.0842 84.2815 26.7229 84.297 27.0394 84.2605C27.0127 84.2378 26.9859 84.2152 26.9595 84.1925C27.0047 84.1957 27.0499 84.1989 27.0951 84.2022C27.0673 84.1748 27.0397 84.1475 27.0116 84.1202C26.8517 84.1489 26.6834 84.1771 26.5281 84.2056C26.4934 84.1518 26.629 84.1507 26.6629 84.1427C26.7526 84.1214 26.6316 84.0792 26.7146 84.0623C26.7431 84.0566 26.8324 84.1093 26.9354 84.0911C26.9554 84.0876 27.3341 84.017 27.2466 83.972C27.178 83.9728 27.0939 83.9763 27.0193 83.9782C26.9776 83.9176 27.3357 83.8867 27.4361 83.8947C27.3658 83.8625 27.3599 83.8153 27.2502 83.8087C27.2475 83.7922 27.245 83.7759 27.2423 83.7594C27.5096 83.7766 27.4607 83.7078 27.2308 83.7033C27.2252 83.7316 27.2192 83.76 27.2135 83.7883C26.9317 83.7669 26.7617 83.8529 27.0227 83.6739C27.1692 83.6396 27.0027 83.7347 27.1124 83.7068C27.1763 83.6584 27.1229 83.6129 27.2249 83.5668C27.3524 83.5095 27.475 83.58 27.3127 83.4465C26.9062 83.741 27.0381 83.406 26.9119 83.2677C27.3135 83.2297 27.4407 83.1128 27.3212 82.9519C27.2095 82.9687 27.267 83.0193 27.2303 83.0485C27.1934 83.0776 27.1271 83.0461 27.0749 83.0824C27.0228 83.1187 26.9518 83.1959 26.8729 83.2327C26.8096 83.2016 26.6601 83.0478 26.8397 83.1494C26.9505 83.0735 27.0643 83.0379 27.085 82.9438C26.9107 82.9156 26.8021 82.9177 26.7971 82.826C27.0393 82.8803 27.2077 82.776 27.458 82.799C27.3997 82.864 27.1564 82.8277 27.04 82.8653C27.0284 82.8691 27.0894 82.9297 27.085 82.9438C27.3035 82.8827 27.3849 82.8615 27.6449 82.8991C27.6221 82.8559 27.6547 82.829 27.5306 82.825C27.5845 82.816 27.6384 82.807 27.6922 82.7981C27.6909 82.784 27.6859 82.7713 27.6869 82.7564C27.4996 82.777 27.6149 82.7371 27.53 82.7088C27.445 82.6805 27.2972 82.7185 27.2952 82.6407C27.2513 82.6666 27.2137 82.6903 27.1722 82.7154C27.1241 82.6653 27.0756 82.615 27.0274 82.5648C26.913 82.6 26.743 82.6764 26.5925 82.6743C26.6493 82.6512 26.5494 82.5721 26.5453 82.5634C26.5299 82.5299 26.6248 82.5481 26.6272 82.5456C26.6733 82.4929 26.641 82.4495 26.7849 82.4295C26.72 82.3899 26.757 82.3601 26.7533 82.3181C26.7513 82.295 26.6456 82.2995 26.6657 82.286C26.7995 82.1961 26.9361 82.2817 26.6761 82.1083C26.6025 82.1293 26.5272 82.15 26.4529 82.171C26.4252 82.1515 26.3972 82.132 26.3695 82.1124C26.3829 82.0993 26.3963 82.0863 26.4097 82.0732C26.5693 82.0735 26.7293 82.0738 26.8889 82.0741C26.8976 82.0597 26.906 82.0453 26.9147 82.0309C26.9304 82.0556 26.9461 82.0803 26.9619 82.105C26.99 82.1072 27.0181 82.1093 27.0461 82.1116C27.0896 82.0749 27.1335 82.0384 27.1774 82.0018C27.1218 82.0011 27.0659 82.0004 27.0104 81.9997C27.0877 81.9172 27.1347 81.9152 26.9818 81.8367C26.9835 81.7763 26.7513 81.7271 26.6536 81.6921C26.6847 81.6796 26.7163 81.667 26.7474 81.6544C26.7012 81.6463 26.6552 81.6382 26.609 81.6302C26.6733 81.6143 26.7375 81.5981 26.8014 81.5822C26.6556 81.5733 26.6101 81.5687 26.5589 81.6309C26.3776 81.6096 26.4576 81.5002 26.5185 81.4557C26.5647 81.4219 26.7159 81.4594 26.7343 81.4552C26.7969 81.4411 26.7429 81.3854 26.7533 81.3737C26.7965 81.3243 26.7889 81.2896 26.8224 81.245C26.8291 81.2363 26.9249 81.212 26.9279 81.2099C26.9443 81.1938 26.9909 81.1542 26.9923 81.1497C27.0638 80.9171 26.6479 81.1656 26.6917 80.9494C26.6369 80.9559 26.5824 80.9618 26.5275 80.9681C26.5242 80.9518 26.521 80.9353 26.5177 80.919C26.5635 80.8983 26.6469 80.9233 26.5796 80.8822C26.6472 80.8849 26.7148 80.8875 26.7821 80.8904C26.7456 80.8725 26.7094 80.8552 26.673 80.8369C26.9075 80.8082 26.9608 80.7032 27.2362 80.7107C27.3299 80.7132 27.426 80.7876 27.5261 80.7483C27.5458 80.7164 27.4339 80.738 27.428 80.725C27.3872 80.6308 27.544 80.6363 27.5022 80.5979C27.435 80.5918 27.3664 80.5854 27.2985 80.5792C27.3183 80.5647 27.338 80.5502 27.3577 80.5355C27.3126 80.5322 27.2673 80.5286 27.2222 80.5253C27.2191 80.5389 27.2161 80.5543 27.2131 80.5669C27.0381 80.5494 26.9595 80.3888 27.1087 80.45C27.1693 80.475 27.1435 80.5206 27.3502 80.4918C27.3205 80.4488 27.29 80.4001 27.2602 80.3548C27.3048 80.3534 27.3493 80.3521 27.3938 80.3507C27.365 80.2898 27.1871 80.3452 27.0917 80.3451C27.089 80.3311 27.0867 80.317 27.084 80.3031C27.1271 80.2972 27.1723 80.2916 27.2141 80.2854C27.1454 80.2848 26.9859 80.277 27.0451 80.2355C27.0837 80.2087 27.2568 80.2508 27.2328 80.1999C27.1258 80.2037 26.9954 80.2221 26.9609 80.1653C27.0726 80.1597 27.175 80.1519 27.2924 80.1475C27.1851 80.077 27.3576 80.0449 27.2328 79.962C27.1538 79.9095 26.8735 79.8375 27.3054 79.8035C27.3168 79.7651 27.2092 79.7773 27.1851 79.7659C27.0706 79.7122 27.2754 79.6723 27.2875 79.6623C27.3647 79.5985 27.2938 79.5699 27.3905 79.5179C27.3105 79.5208 27.2348 79.5223 27.1568 79.5246C27.2766 79.5722 27.271 79.5963 27.2452 79.6631C27.2292 79.6407 27.2128 79.6183 27.1967 79.5959C27.1318 79.5995 27.0669 79.6032 27.0023 79.6067C27.258 79.8132 26.8541 79.765 26.7657 79.5919C26.8858 79.577 27.0056 79.5615 27.1261 79.5467C26.944 79.4467 27.102 79.3996 27.1399 79.2865C27.1442 79.273 27.075 79.224 27.0716 79.203C27.0711 79.2033 27.0707 79.2037 27.0702 79.204C26.9568 79.1909 26.9046 79.2087 26.8032 79.2108C26.7905 79.1994 26.7778 79.188 26.7651 79.1766C26.8424 79.1511 26.9059 79.16 26.8875 79.1099C26.8105 79.1167 26.7335 79.1233 26.6566 79.1301C26.6539 79.0751 26.7375 79.0392 26.7014 78.988C26.7305 78.9966 26.7597 79.0051 26.7888 79.0137C26.8631 78.9024 27.3155 78.991 27.0903 78.9069C27.1298 78.9015 27.1697 78.8963 27.2091 78.891C27.2188 78.9256 27.2282 78.9603 27.2379 78.9948C27.2938 78.9955 27.3494 78.9963 27.4053 78.9968C27.3886 78.9598 27.3713 78.9225 27.3546 78.8855C27.3921 78.9125 27.4296 78.9397 27.4671 78.9668C27.4938 78.9238 27.5206 78.8809 27.5474 78.8379C27.342 78.8835 27.3168 78.8244 27.1134 78.8355C27.2827 78.7594 27.5059 78.6997 27.3631 78.5817C27.3346 78.5583 27.1924 78.571 27.3654 78.5047C27.1393 78.5208 27.0331 78.4376 26.818 78.4483C26.8284 78.4714 26.8349 78.4954 26.8476 78.5178C26.9222 78.4923 27.1275 78.488 27.1884 78.5268C27.266 78.5762 27.1238 78.6483 27.3516 78.6454C27.3409 78.6651 27.3346 78.6835 27.3256 78.7026C27.269 78.6947 27.2122 78.687 27.1557 78.6793C27.2443 78.7338 27.2155 78.768 27.073 78.7942C27.0402 78.7293 27.0077 78.6645 26.9753 78.5995C26.9656 78.6091 26.9558 78.6188 26.9465 78.6284C26.8009 78.5792 26.663 78.6299 26.6319 78.5382C26.6985 78.5387 26.7651 78.5392 26.832 78.5398C26.654 78.5064 26.655 78.4149 26.4502 78.4441C26.5131 78.4165 26.5529 78.4109 26.4425 78.3952C26.5981 78.3224 26.7948 78.2756 27.0298 78.3015C26.992 78.2745 26.9541 78.2474 26.9163 78.2205C26.8521 78.2362 26.7881 78.2518 26.7239 78.2675C26.7279 78.2204 26.7318 78.173 26.7355 78.1261C26.9256 78.1216 26.7932 78.2167 26.9631 78.1892C26.9972 78.1837 26.9241 78.1584 26.9433 78.1518C27.1511 78.0816 27.001 78.1917 27.1602 78.1711C27.2094 78.0665 27.4762 78.1502 27.252 78.0062C27.3068 78.0024 27.3628 77.9983 27.4173 77.9948C27.4206 77.9448 27.2967 77.9488 27.2733 77.9059C27.2587 77.879 27.4763 77.8452 27.3281 77.8155C27.3008 77.8102 27.0348 77.8602 27.0465 77.7551C27.0556 77.6736 27.2436 77.7075 27.3102 77.6635C27.3768 77.6194 27.1161 77.5185 27.4116 77.4887C27.3725 77.5118 27.3514 77.5413 27.3193 77.5669C27.3768 77.5773 27.4337 77.5875 27.4909 77.5978C27.4167 77.5392 27.5042 77.4786 27.367 77.4391C27.5768 77.3609 27.3821 77.2735 27.1452 77.2971C27.1794 77.3229 27.2827 77.2949 27.2168 77.3306C27.1616 77.3343 27.1067 77.3382 27.0515 77.3418C27.0582 77.281 27.0566 77.2387 27.2249 77.2664C27.2289 77.257 27.2329 77.2477 27.237 77.2382C27.1152 77.2365 26.9929 77.235 26.8711 77.2333C26.8574 77.2221 26.8438 77.2107 26.8301 77.1995C26.8568 77.1869 26.8839 77.1744 26.911 77.1617C27.1037 77.1788 27.1101 77.2078 27.2178 77.1117C27.1512 77.1114 27.0849 77.111 27.0183 77.1107C27.103 77.0303 27.2643 77.0282 27.2583 76.9272C27.4895 77.0047 27.0796 77.047 27.5434 77.0468C27.513 77.0662 27.4821 77.0858 27.4517 77.1053C27.5189 77.1082 27.5863 77.1111 27.6535 77.114C27.6181 77.0096 27.1757 76.8362 27.469 76.7663C27.4332 76.7578 27.4021 76.7493 27.3637 76.7408C27.5407 76.6723 27.1433 76.6427 27.3721 76.5733C27.3962 76.5661 27.7695 76.5811 27.7562 76.4907C27.7076 76.4929 27.626 76.4941 27.5647 76.4959C27.5945 76.4763 27.6257 76.4569 27.6561 76.4374C27.6113 76.4339 27.5665 76.4302 27.5213 76.4267C27.5039 76.4601 27.4862 76.4934 27.4688 76.5268C27.4534 76.499 27.438 76.4711 27.4227 76.4434C27.3494 76.4796 27.3486 76.4959 27.2312 76.4741C27.2242 76.4427 27.2168 76.4112 27.2097 76.3798C27.1797 76.3765 27.1492 76.3733 27.1192 76.3701C27.0295 76.3853 26.9418 76.4007 26.8508 76.4159C26.9241 76.334 26.928 76.2629 27.1044 76.2C27.1341 76.1893 27.251 76.2272 27.1456 76.1542C27.2075 76.1531 27.2577 76.1512 27.3149 76.1499C27.1416 76.0606 27.1933 76.0312 27.3185 75.9381C27.2017 75.9984 27.2776 75.9446 27.2151 75.9292C27.1719 75.9187 27.1783 75.9598 27.1332 75.9551C27.0883 75.9505 26.9073 75.8971 26.8855 75.9428C27.2566 76.0546 26.8129 76.0851 26.9913 76.2288C26.9434 76.2067 26.8955 76.1844 26.8476 76.1623C26.8152 76.1727 26.7858 76.182 26.7513 76.1933C26.8239 76.1131 26.7767 76.1521 26.7195 76.1192C26.6623 76.0862 26.6137 76.0263 26.598 75.9861C26.593 75.9735 26.6763 75.9868 26.684 75.9583C26.6894 75.9389 26.566 75.8857 26.7115 75.8735C26.8061 75.8654 27.0669 75.9508 27.0663 75.8328C27.1591 75.8105 27.1303 75.8671 27.1414 75.8683C27.2519 75.8786 27.3349 75.8061 27.2506 75.7726C27.2433 75.7698 27.1573 75.7963 27.1235 75.7675C27.0428 75.6992 27.1415 75.6597 27.275 75.6155C27.1184 75.6107 26.9314 75.5532 26.9893 75.4816C26.9445 75.478 26.8993 75.4745 26.8541 75.4708C26.8778 75.4819 26.9012 75.493 26.925 75.5041C26.8969 75.5163 26.8764 75.5291 26.8433 75.5409C26.8048 75.469 26.5889 75.4588 26.51 75.4243C26.2402 75.3062 26.8108 75.3777 26.9092 75.399C26.8694 75.4144 26.8249 75.4292 26.7831 75.4445C26.8376 75.4428 26.8926 75.4411 26.9475 75.4395C26.9458 75.2627 27.3015 75.4126 27.4029 75.3228C27.1346 75.2997 27.1087 75.2338 27.279 75.1499C27.2777 75.1406 27.2773 75.1312 27.2756 75.1219C27.2365 75.1204 27.1767 75.1204 27.1509 75.1179C27.1054 75.0167 27.5187 74.9987 27.5578 74.9891C27.7315 74.9466 27.4912 74.9134 27.4892 74.9009C27.4808 74.8481 27.5875 74.8327 27.5416 74.7824C27.4921 74.7283 27.4103 74.7653 27.337 74.7489C27.2788 74.7357 27.2685 74.693 27.2081 74.6754C27.2575 74.6824 27.3059 74.6902 27.3554 74.6971C27.4226 74.6411 27.4882 74.5953 27.5046 74.5316C27.1436 74.4597 27.7525 74.3986 27.2587 74.4234C27.2249 74.4837 27.1686 74.5174 27.0428 74.5497C27.0267 74.5101 27.0111 74.4705 26.995 74.4309C27.0492 74.4194 27.102 74.4112 27.1572 74.3975C27.0421 74.3679 27.0915 74.2993 27.0578 74.2724C26.8995 74.1463 26.7032 74.1853 27.0331 74.0702C27.0653 74.1532 27.2255 74.1531 27.2034 74.2353C27.3179 74.2176 27.2941 74.1758 27.4313 74.2028C27.3975 74.1232 27.2751 74.149 27.1663 74.118C27.0726 74.0913 27.0673 74.0375 26.9455 74.0405C27.0125 74.035 27.0773 74.0308 27.1442 74.0253C27.1435 73.9737 27.1435 73.9222 27.1428 73.8706C27.2128 73.8926 27.2828 73.9146 27.3524 73.9365C27.3788 73.9199 27.4051 73.9033 27.4315 73.8867C27.214 73.7599 27.6127 73.5412 27.0663 73.5762C27.0489 73.515 27.1174 73.5074 27.2208 73.4741C27.1793 73.4705 27.1448 73.4669 27.0986 73.4632C27.1421 73.4238 26.9863 73.3935 27.0268 73.3587C27.067 73.3239 27.2141 73.3153 26.9668 73.3102C27.0377 73.2877 27.0967 73.2653 27.1626 73.2429C27.1064 73.2294 27.0509 73.2159 26.995 73.2025C27.0245 73.1814 27.0538 73.1602 27.0832 73.1391C26.9652 73.1278 27.0161 73.0447 26.9368 73.008C27.064 72.9733 27.4646 72.9742 27.3929 72.8924C27.2935 72.8945 27.1944 72.8966 27.0951 72.8987C27.1158 72.88 27.1365 72.8612 27.1572 72.8423C27.1897 72.8412 27.2221 72.8402 27.2545 72.8391C27.2445 72.8487 27.2345 72.8581 27.2241 72.8677C27.279 72.8594 27.3336 72.8513 27.3885 72.8431C27.3072 72.8145 27.2259 72.7859 27.1446 72.7571C27.0831 72.7959 27.0215 72.8346 26.9599 72.8734C26.887 72.8247 26.9597 72.7909 26.8784 72.7487C27.0156 72.7119 27.0946 72.7255 27.2435 72.7404C27.2308 72.7267 27.2185 72.7129 27.2058 72.6993C27.3547 72.7083 27.4434 72.6852 27.4313 72.765C27.4738 72.7595 27.5143 72.7539 27.5584 72.7486C27.5517 72.7355 27.5876 72.727 27.5713 72.7126C27.5264 72.6734 27.2649 72.6434 27.1732 72.6461C27.1252 72.6475 27.217 72.6862 27.1491 72.6846C26.9836 72.6808 27.0579 72.5922 26.8916 72.72C26.7862 72.6776 26.8657 72.6681 26.8962 72.6213C26.841 72.625 26.7862 72.6285 26.731 72.6321C26.7564 72.6104 26.7817 72.5887 26.8072 72.567C27.0906 72.5971 27.197 72.4372 27.445 72.5812C27.4577 72.5386 27.4704 72.4962 27.4838 72.4538C27.5129 72.4626 27.5417 72.4713 27.5709 72.48C27.5555 72.4992 27.5403 72.5182 27.5253 72.5374C27.5785 72.5148 27.6313 72.4923 27.6845 72.4697C27.6186 72.4165 27.5172 72.3956 27.3921 72.3712C27.3007 72.4332 27.4255 72.413 27.4503 72.4613C27.371 72.4596 27.2981 72.4618 27.2149 72.4576C27.379 72.4326 27.2596 72.3512 27.2516 72.3323C27.2272 72.2749 27.3885 72.3199 27.3919 72.2815C27.3952 72.2431 27.2992 72.1977 27.4592 72.1663C27.3695 72.1668 27.2768 72.1694 27.1951 72.1716C27.1657 72.1117 27.2716 72.1237 27.2853 72.1175C27.5108 72.0186 27.3204 71.9649 27.2973 71.8518C27.2696 71.8661 27.2445 71.8807 27.2184 71.8952C27.0281 71.8098 27.0863 71.8673 27.0234 71.9414C27.0425 71.872 26.8804 71.8322 26.8322 71.7832C26.7841 71.7341 26.8674 71.6501 26.9323 71.6193C27.0367 71.6896 26.9678 71.7655 26.9966 71.8435C27.0879 71.8346 27.1652 71.826 27.2656 71.8169C27.0739 71.7694 27.2021 71.7419 27.2275 71.7262C27.3021 71.6803 27.1376 71.6818 27.3145 71.654C27.2536 71.6551 27.2025 71.656 27.1456 71.6571C27.171 71.5623 27.2786 71.46 27.0538 71.3983C27.2 71.3927 27.3409 71.3884 27.4901 71.3819C27.3801 71.3418 27.4928 71.3074 27.4671 71.2736C27.4413 71.2399 27.3231 71.2528 27.2776 71.2132C27.2692 71.2058 27.3432 71.1906 27.2887 71.1725C27.2338 71.1543 26.8261 71.0872 27.1823 71.0792C27.184 71.0452 27.197 71.0131 27.203 70.9798C27.2231 71.0122 27.2425 71.0446 27.2626 71.0769C27.3489 71.0493 27.435 71.0219 27.5213 70.9942C27.4444 70.9907 27.366 70.9872 27.29 70.9838C27.1964 70.9094 27.3222 70.8554 27.2924 70.7803C27.2874 70.7678 27.1352 70.7974 27.174 70.7418C27.2128 70.6861 27.4968 70.6448 27.3871 70.55C27.3814 70.5452 27.1639 70.5171 27.3145 70.4832C27.3486 70.4755 27.3991 70.508 27.444 70.4902C27.4888 70.4725 27.5257 70.3933 27.6324 70.3871C27.5946 70.3879 27.5555 70.3929 27.517 70.3953C27.4989 70.3818 27.4808 70.3681 27.4631 70.3544C27.5297 70.3532 27.5964 70.3518 27.6626 70.3505C27.5077 70.2728 27.255 70.2326 27.3386 70.1173C27.2419 70.1497 27.1448 70.1821 27.0481 70.2144C27.116 70.2233 27.1844 70.2322 27.2524 70.2409C27.2253 70.294 27.1983 70.3473 27.1712 70.4004C27.2485 70.4091 27.3256 70.4177 27.4029 70.4264C27.3929 70.4405 27.3832 70.4545 27.3731 70.4685C27.3172 70.465 27.2617 70.4615 27.2058 70.4578C27.2195 70.4857 27.2335 70.5136 27.2472 70.5414C26.9174 70.4849 27.2753 70.3836 26.9994 70.3909C27.0422 70.3784 27.0853 70.3658 27.1284 70.3533C26.9946 70.3478 27.0331 70.3223 27.0542 70.2774C26.9883 70.2877 26.9233 70.299 26.8567 70.3085C26.9497 70.2648 26.9407 70.1873 26.9765 70.1421C26.9922 70.1222 27.0892 70.1421 27.1006 70.1362C27.1602 70.1059 26.9909 70.048 27.0043 70.0359C27.084 69.9635 27.4048 69.9164 27.1933 69.8374C27.1411 69.9189 27.1632 69.8746 27.0457 69.9036C27.0089 69.9127 26.9321 70.0181 26.9662 69.8861C26.9705 69.8706 27.1922 69.6312 27.3621 69.7099C27.3079 69.6711 27.2452 69.6408 27.1876 69.6053C27.6354 69.5185 27.2147 69.5486 26.9832 69.5738C26.9822 69.5595 26.9798 69.546 26.9798 69.5314C27.2231 69.5625 27.2382 69.4039 27.1154 69.35C27.0746 69.332 26.9967 69.3824 26.9599 69.3407C26.977 69.3209 26.999 69.2983 27.0181 69.2774C26.8642 69.3078 26.8049 69.2481 26.6483 69.2489C26.7878 69.2107 27.0836 69.1815 27.2439 69.2025C27.179 69.171 27.1141 69.1392 27.0489 69.1077C27.0118 69.1223 26.9749 69.1372 26.9378 69.1518C27.0362 69.0487 26.8123 68.9161 27.1413 68.8945C27.1389 68.8809 27.1369 68.8671 27.1345 68.8534C27.079 68.8492 27.0233 68.8451 26.9678 68.8409C27.016 68.779 27.0645 68.7173 27.1126 68.6555C27.1471 68.7106 27.2262 68.7237 27.162 68.7814C27.2259 68.7592 27.2901 68.7365 27.354 68.7147C27.182 68.6277 27.0689 68.6159 27.1201 68.485C27.1225 68.4791 27.2667 68.3802 27.2808 68.3768C27.345 68.3613 27.4383 68.3848 27.4708 68.3779C27.5618 68.3588 27.7904 68.2423 27.8248 68.2446C28.2478 68.2731 28.2534 68.6648 28.2752 68.7707C28.5007 69.8697 28.199 70.9444 28.2505 72.0364C28.2513 72.0476 28.3137 72.0427 28.3164 72.0475C28.3321 72.0772 28.2348 72.1064 28.2308 72.1174C28.2225 72.1409 28.3124 72.1279 28.3124 72.1451C28.3114 72.3223 28.2586 72.4896 28.274 72.667C28.275 72.6785 28.203 72.6667 28.2158 72.687C28.2227 72.6975 28.3331 72.7303 28.3347 72.7539C28.3404 72.8365 28.3051 72.9058 28.3067 72.9929C28.3077 73.0405 28.2983 73.1119 28.3 73.1652C28.3007 73.1887 28.3512 73.2132 28.3529 73.2364C28.3552 73.2694 28.2529 73.2627 28.2465 73.2677C28.2188 73.29 28.3311 73.2931 28.3284 73.3142C28.3231 73.3535 28.2481 73.3556 28.2544 73.4055C28.2591 73.4411 28.3183 73.5227 28.3357 73.5677C28.2487 73.6728 28.2833 73.8052 28.3121 73.9033C28.3291 73.9613 28.2241 73.9667 28.2244 73.9904C28.2265 74.0738 28.3606 74.137 28.3649 74.2154C28.3706 74.3193 28.2819 74.4114 28.2755 74.5121C28.2745 74.5285 28.3708 74.5247 28.3732 74.5408C28.3823 74.6001 28.3998 74.6759 28.3861 74.7287C28.371 74.7876 28.2313 74.8093 28.2598 74.867C28.2682 74.8839 28.3907 74.8888 28.4064 74.9171C28.4311 74.9623 28.3231 75.0119 28.3111 75.0435C28.295 75.0867 28.4198 75.0491 28.403 75.1074C28.4023 75.1098 28.3131 75.1186 28.3174 75.1311C28.3294 75.1676 28.3997 75.164 28.393 75.2174C28.392 75.2225 28.3071 75.2933 28.3067 75.3003C28.3054 75.3417 28.2756 75.4251 28.2937 75.4496C28.358 75.5373 28.4921 75.4683 28.201 75.5428C28.2722 75.5756 28.3444 75.6082 28.4137 75.643C28.3491 75.6197 28.2559 75.714 28.2619 75.7206C28.3105 75.7754 28.4237 75.7427 28.405 75.8122C28.1433 75.7205 28.3713 75.9018 28.378 75.9422C28.4104 76.1369 28.3451 76.3139 28.3468 76.5096C28.3475 76.5751 28.4028 76.6629 28.4014 76.7322C28.4014 76.7483 28.3394 76.7361 28.3381 76.7504C28.3372 76.7645 28.4067 76.7488 28.403 76.765C28.3789 76.8657 28.2478 76.9447 28.4117 77.0369C28.388 77.0414 28.3693 77.0413 28.3432 77.0487C28.4901 77.1242 28.2926 77.2697 28.2655 77.3243C28.2233 77.4098 28.3226 77.4317 28.3026 77.4938C28.2758 77.5759 28.0818 77.6992 28.402 77.6442C28.4121 77.7005 28.4148 77.7547 28.3851 77.8117C28.3817 77.818 28.3003 77.8136 28.2986 77.8162C28.287 77.8322 28.3598 77.8374 28.3632 77.8483C28.3722 77.8777 28.2849 77.8297 28.3093 77.8716C28.3223 77.8938 28.3859 77.9063 28.3872 77.9677C28.3943 78.338 28.3715 78.74 28.3608 79.1195C28.3601 79.1456 28.4388 79.1284 28.4338 79.1611C28.4164 79.2747 28.2839 79.4779 28.302 79.5758C28.3201 79.6737 28.4352 79.6517 28.4833 79.7129C28.4927 79.7248 28.4271 79.715 28.4261 79.7258C28.4201 79.7978 28.3178 79.8836 28.3024 79.9419C28.2921 79.9805 28.3953 79.9774 28.4026 80.0041C28.4133 80.044 28.3091 80.0851 28.3057 80.1063C28.291 80.2063 28.375 80.2751 28.3322 80.3685C28.3549 80.3648 28.3759 80.3624 28.3983 80.3593C28.3946 80.4699 28.3909 80.5804 28.3872 80.691C28.408 80.6857 28.4289 80.6807 28.45 80.6755C28.4386 80.8052 28.2137 80.7904 28.6886 80.779C28.7053 80.7885 28.7247 80.7985 28.7401 80.8075C28.4955 80.8038 28.3165 80.8823 28.2542 80.9822C28.2495 80.9895 28.488 81.0387 28.2063 81.0333C28.2752 81.0461 28.3227 81.0538 28.3833 81.0646C28.298 81.0857 28.2137 81.1072 28.1287 81.1283C28.1414 81.1397 28.1537 81.1513 28.1664 81.1627C28.2216 81.1644 28.279 81.1631 28.3332 81.1667C28.3415 81.2197 28.2733 81.3283 28.2803 81.3702C28.298 81.4742 28.4473 81.58 28.286 81.6609C28.3024 81.7003 28.4108 81.6612 28.3971 81.7197C28.3422 81.7264 28.2897 81.7326 28.2331 81.7395C28.4783 81.7874 28.3291 81.7974 28.2779 81.863C28.2431 81.9074 28.303 81.9364 28.2913 81.9787C28.2883 81.9894 28.2164 81.9879 28.2187 81.9952C28.2261 82.0197 28.3252 82.0897 28.3278 82.1071C28.3539 82.264 28.3428 82.3988 28.3164 82.5483C28.3137 82.5644 28.3847 82.5435 28.3817 82.5602C28.377 82.5869 28.2679 82.5712 28.2625 82.5867C28.2482 82.6299 28.3633 82.6302 28.3693 82.6905C28.389 82.889 28.3026 83.1172 28.2949 83.3246C28.2949 83.3311 28.3623 83.3307 28.363 83.3377C28.3663 83.3837 28.2751 83.4301 28.2761 83.4718C28.2775 83.541 28.3722 83.593 28.3718 83.6613C28.3715 83.7949 28.323 83.9142 28.3203 84.0516C28.318 84.164 28.327 84.2616 28.3267 84.3849C28.3253 84.9234 28.5393 85.4729 28.4255 86.015C28.4225 86.0288 28.363 86.0232 28.3655 86.0274C28.3913 86.0674 28.4717 86.071 28.3034 86.0852C28.3365 86.1362 28.463 86.1523 28.4539 86.2138C28.4492 86.2466 28.2532 86.2221 28.3543 86.2776C28.4456 86.3277 28.553 86.2724 28.4433 86.4215C28.4403 86.4254 28.3208 86.4448 28.3519 86.4758C28.3827 86.507 28.4682 86.4709 28.494 86.5459C28.5542 86.7218 28.451 86.9446 28.4828 87.1491C28.4848 87.1619 28.5486 87.2854 28.5781 87.3098C28.6353 87.357 28.724 87.3471 28.7458 87.4084C28.7625 87.4557 28.662 87.4948 28.6821 87.5504C28.6845 87.5569 28.7879 87.5678 28.7742 87.6096ZM26.7653 77.2384C26.6638 77.2268 26.2903 77.206 26.404 77.1361C26.4147 77.1295 26.6716 77.1652 26.7124 77.1266C26.7395 77.1644 26.7483 77.2012 26.7657 77.2384C26.7656 77.2384 26.7655 77.2384 26.7653 77.2384ZM26.3926 87.9124C26.4113 87.8601 26.4299 87.8076 26.4486 87.7554C26.4938 87.7914 26.5389 87.8276 26.5844 87.8635C26.5205 87.8798 26.4565 87.896 26.3926 87.9124ZM26.57 81.4057C26.57 81.4057 26.57 81.4058 26.57 81.4058C26.5218 81.3509 26.4735 81.2959 26.4253 81.241C26.4608 81.2467 26.4964 81.2525 26.5319 81.2583C26.5877 81.3017 26.6435 81.3451 26.6994 81.3884C26.6563 81.3941 26.6131 81.3999 26.57 81.4057ZM26.9455 81.8398C26.9033 81.8749 26.8322 81.8663 26.763 81.8856C26.7631 81.8856 26.7632 81.8856 26.7634 81.8856C26.7453 81.8907 26.7295 81.9144 26.7268 81.9236C26.7713 81.9202 26.8153 81.9158 26.8595 81.9122C26.9672 81.994 26.5843 82.1541 26.43 81.9469C26.4863 81.95 26.5422 81.9529 26.5984 81.956C26.5827 81.853 26.7046 81.7382 26.9455 81.8398ZM26.6035 76.4103C26.4195 76.3223 26.3807 76.2942 26.5068 76.1875C26.559 76.2026 26.6111 76.2176 26.6633 76.2327C26.6101 76.2503 26.5573 76.2678 26.5041 76.2854C26.5041 76.2855 26.5041 76.2855 26.5041 76.2856C26.5599 76.2891 26.6159 76.2926 26.6718 76.296C26.649 76.334 26.6263 76.3722 26.6035 76.4103ZM26.8125 85.2051C26.4449 85.2296 26.6586 85.2225 26.5757 85.1525C26.5469 85.1283 26.4826 85.1519 26.4719 85.1368C26.4134 85.0554 26.6597 85.0489 26.7878 85.0671C26.7965 85.1131 26.8045 85.1597 26.8125 85.2049C26.8125 85.205 26.8125 85.205 26.8125 85.2051ZM26.8889 87.3172C26.8889 87.3173 26.8889 87.3173 26.8889 87.3174C26.7992 87.3195 26.7751 87.2867 26.6901 87.3237C26.6905 87.2955 26.6912 87.2674 26.6915 87.2391C26.6999 87.2474 26.7078 87.2558 26.7162 87.2641C26.747 87.2568 26.7782 87.2495 26.8089 87.2421C26.7059 87.2321 26.7658 87.2229 26.8003 87.1933C26.6902 87.2014 26.58 87.2096 26.4699 87.2177C26.5027 87.1834 26.5356 87.1489 26.5684 87.1145C26.5961 87.1141 26.6239 87.1137 26.6517 87.1132C26.6162 87.1003 26.5804 87.0875 26.5449 87.0745C26.578 87.071 26.6108 87.0676 26.644 87.0641C26.6189 87.0484 26.5938 87.0328 26.5684 87.0171C26.6486 87.0124 26.6833 87.0468 26.6629 86.9858C26.7452 87.0045 26.8273 87.0232 26.9096 87.0421C26.9029 87.1338 26.8959 87.2255 26.8889 87.3172ZM26.6994 84.5683C26.7148 84.6693 26.6567 84.6409 26.4746 84.6175C26.5496 84.6012 26.6245 84.5847 26.6994 84.5683ZM26.8614 79.3641C26.7373 79.3348 26.6144 79.3054 26.4946 79.2754C26.4253 79.2156 26.6516 79.1559 26.7403 79.2008C26.8467 79.2549 26.7276 79.3114 26.8614 79.3641ZM26.8062 78.0036C26.7486 78.0766 26.6011 78.0079 26.5151 77.9914C26.6533 77.9712 26.6411 77.943 26.6572 77.8977C26.6661 77.9402 26.8159 77.9915 26.8066 78.0036C26.8064 78.0036 26.8063 78.0036 26.8062 78.0036ZM26.7219 80.5403C26.7256 80.5696 26.7603 80.5987 26.7182 80.6249C26.5995 80.617 26.7075 80.5646 26.5315 80.6021C26.5285 80.5833 26.5256 80.5646 26.5222 80.546C26.5951 80.5578 26.6496 80.5419 26.7215 80.5403C26.7216 80.5403 26.7218 80.5403 26.7219 80.5403ZM26.5595 83.5896C26.7 83.5321 26.6399 83.5213 26.5425 83.4633C26.657 83.4552 26.8486 83.5242 26.8908 83.5675C26.7804 83.5748 26.6699 83.5822 26.5595 83.5896ZM26.6181 69.9933C26.764 70.0071 26.783 70.1089 26.7399 70.1595C26.7182 70.1535 26.6963 70.1475 26.6744 70.1414C26.6556 70.0921 26.6369 70.0426 26.6181 69.9933ZM26.6671 77.8761C26.6628 77.8837 26.6596 77.8909 26.6572 77.8977C26.6556 77.8902 26.6581 77.8829 26.6671 77.8761ZM27.3001 74.8157C27.4376 74.8398 27.4838 74.7682 27.43 74.8551C27.4301 74.8551 27.4302 74.8551 27.4304 74.8551C27.3949 74.9126 27.3854 74.9253 27.3747 74.9785C27.198 74.9594 27.1349 74.8513 27.0984 75.0002C27.0983 75.0022 27.2034 74.9983 27.189 75.0221C27.1845 75.0294 27.0983 75.0529 27.0732 75.0887C27.0651 75.1002 27.0385 75.187 27.0369 75.0687C26.9137 75.0722 26.7891 75.0659 26.6696 75.0661C26.6349 75.02 26.876 74.9845 26.8701 74.9356C26.8607 74.863 26.6169 74.8261 26.9368 74.8122C27.0154 74.8732 27.0173 74.9779 26.8249 74.9916C26.8226 75.0506 26.9802 75.0676 27.0582 75.02C26.9591 74.8161 27.2921 74.964 27.1663 74.7855C27.1218 74.7834 27.0739 74.7761 27.0321 74.7772C27.1887 74.7227 27.2509 74.8071 27.3001 74.8157ZM26.9599 75.242C26.8659 75.2068 26.7711 75.1716 26.6767 75.1366C26.83 75.1366 26.9675 75.1559 27.0538 75.2114C27.0224 75.2216 26.991 75.2318 26.9599 75.242ZM26.9196 72.2791C26.8363 72.274 26.76 72.2605 26.6807 72.2507C26.7509 72.24 26.8183 71.9864 26.8873 72.1154C26.8973 72.1341 26.75 72.2484 26.9196 72.2791ZM26.685 83.9887C26.7409 83.9589 26.7969 83.9291 26.8527 83.8994C26.8882 83.9452 26.9246 83.991 26.9607 84.0367C26.8688 84.0207 26.7769 84.0048 26.685 83.9887ZM27.0077 78.8779C27.0045 78.8905 26.8899 78.8486 26.908 78.8983C26.8347 78.8613 26.7727 78.8266 26.7038 78.7904C26.758 78.7795 26.812 78.7686 26.8662 78.7577C26.8314 78.7493 26.7968 78.7406 26.762 78.7322C26.8409 78.7373 26.9181 78.7418 26.9984 78.7471C26.8291 78.8081 27.021 78.8221 27.0077 78.8779ZM27.3165 80.6919C27.1449 80.7028 27.0428 80.6145 27.0154 80.7014C26.9026 80.6849 26.8434 80.6584 26.8334 80.6075C26.8765 80.5994 26.9193 80.5912 26.9625 80.5831C26.8471 80.5819 26.8042 80.5689 26.7219 80.5403C26.722 80.5403 26.7222 80.5402 26.7223 80.5402C26.714 80.4629 26.7524 80.4675 26.9421 80.4489C26.8351 80.5308 27.0084 80.5332 27.1115 80.589C27.1823 80.6273 27.1502 80.6773 27.3165 80.6919ZM26.9216 72.5493C26.7767 72.4914 26.6416 72.5434 26.7955 72.4407C26.8323 72.4473 26.8688 72.454 26.9056 72.4606C26.9113 72.4902 26.9166 72.5197 26.9216 72.5493ZM26.7282 80.9775C26.9939 80.9709 27.2007 80.9164 26.7685 80.9071C26.6805 80.9602 26.9253 80.9343 26.7282 80.9775ZM27.2222 78.0285C27.2098 78.1306 26.9099 78.1113 26.76 78.0693C26.8145 78.0628 26.8692 78.0564 26.9234 78.05C26.8986 78.0321 26.8738 78.0142 26.8494 77.9963C26.9735 78.0071 27.098 78.0178 27.2222 78.0285ZM27.0201 82.7781C26.8304 82.7001 26.9146 82.8624 26.7961 82.8078C26.7014 82.7643 26.8926 82.7069 27.0124 82.7286C27.0157 82.7437 27.0181 82.7605 27.0201 82.778C27.0201 82.778 27.0201 82.7781 27.0201 82.7781ZM26.9658 82.3264C26.7631 82.3393 26.8222 82.3208 26.8587 82.3825C26.869 82.4001 26.7929 82.54 26.9609 82.4813C26.9609 82.4313 26.9638 82.3784 26.9658 82.3264ZM26.9256 76.8479C27.0138 76.8469 27.2077 76.9547 27.1592 76.9685C27.1593 76.9685 27.1595 76.9685 27.1596 76.9685C27.0274 77.0059 27.0086 76.8922 26.8273 76.9415C26.9869 76.8323 26.6009 76.7997 27.1095 76.8073C27.1318 76.8716 27.0269 76.8411 26.9256 76.8479ZM27.0337 68.6563C27.0337 68.6563 27.0337 68.6562 27.0337 68.6562C27.0296 68.6634 26.9 68.723 26.8551 68.7158C26.8936 68.6441 26.9789 68.6569 26.8387 68.5901C26.8839 68.5864 26.9277 68.5833 26.9731 68.5794C26.9999 68.6059 27.0541 68.6205 27.0337 68.6563ZM27.0976 72.0049C27.1207 72.0313 27.0251 72.0794 27.0307 72.1094C26.6633 72.0138 27.0059 71.8997 27.0976 72.0049ZM26.8762 86.3294C26.8761 86.3293 26.876 86.3292 26.8758 86.3291C26.876 86.3292 26.8762 86.3292 26.8764 86.3292C26.8764 86.3293 26.8763 86.3293 26.8762 86.3294ZM26.8772 74.0465C26.9011 74.0431 26.9218 74.0412 26.94 74.0405C26.9417 74.0405 26.9434 74.0405 26.9451 74.0405C26.9228 74.0423 26.9002 74.0443 26.8772 74.0465ZM26.8989 76.6239C27.022 76.579 27.2178 76.7286 27.1711 76.7769C27.1149 76.7736 27.0639 76.773 26.9994 76.7652C27.1449 76.7261 26.8782 76.6314 26.8989 76.6239ZM26.9441 80.0332C26.9475 79.915 27.4336 80.0688 27.0457 80.0752C27.0382 80.0749 26.9448 80.0363 26.9441 80.0332ZM26.9498 77.5561C27.097 77.5862 27.1361 77.5257 27.1107 77.6225C27.0725 77.6281 27.0343 77.6337 26.9962 77.6394C26.9808 77.6116 26.9652 77.5838 26.9498 77.5561ZM27.5823 79.2589C27.5003 79.1101 27.3557 78.9678 26.9498 79.0647C26.9629 79.076 26.9755 79.0874 26.9885 79.0986C27.1865 79.1003 27.0784 79.1419 27.072 79.2027C27.1506 79.2114 27.1688 79.2451 27.2356 79.2514C27.3647 79.2637 27.4555 79.2249 27.5823 79.2589ZM27.26 85.5398C27.2263 85.5374 27.1923 85.535 27.1588 85.5326C27.1207 85.5091 27.0827 85.4855 27.0446 85.462C27.1094 85.4658 27.1743 85.4696 27.2391 85.4734C27.2462 85.4955 27.2532 85.5175 27.2602 85.5396C27.2602 85.5397 27.2601 85.5397 27.26 85.5398ZM27.3777 75.387C27.0057 75.3734 27.0742 75.4207 27.2622 75.5165C27.3007 75.4734 27.3392 75.4301 27.3777 75.387ZM27.4315 81.6495C27.3259 81.6526 27.2205 81.6556 27.1148 81.6589C27.2249 81.7097 27.3459 81.7003 27.4858 81.6759C27.4678 81.667 27.4496 81.6583 27.4315 81.6495ZM27.4765 82.3821C27.4986 82.361 27.4132 82.3717 27.415 82.3695C27.4598 82.3161 27.4989 82.3086 27.4347 82.2431C27.4123 82.2351 27.3887 82.2272 27.3656 82.2192C27.1442 82.2494 27.2649 82.2714 27.1347 82.3355C27.2107 82.324 27.2868 82.3125 27.3631 82.3009C27.347 82.3366 27.3312 82.372 27.3151 82.4077C27.3385 82.4119 27.3617 82.4161 27.3852 82.4204C27.4153 82.4077 27.4491 82.3946 27.4765 82.3821ZM27.1639 85.8118C27.1552 85.8465 27.1462 85.8813 27.1375 85.916C27.192 85.9172 27.247 85.9185 27.3015 85.9197C27.2557 85.8838 27.2098 85.8478 27.1639 85.8118ZM27.2081 74.6754C27.1888 74.6726 27.1693 74.6699 27.1495 74.6676C27.1737 74.6678 27.1925 74.6708 27.2081 74.6754ZM27.3329 68.5649C27.371 68.5256 27.346 68.4689 27.354 68.4258C27.2172 68.4292 27.255 68.5388 27.172 68.5773C27.1966 68.5835 27.3168 68.5815 27.3329 68.5649ZM27.2101 78.1698C27.2784 78.1796 27.3463 78.1895 27.4146 78.1992C27.4072 78.223 27.3994 78.2469 27.3921 78.2708C27.448 78.2715 27.5043 78.2722 27.5602 78.2729C27.4876 78.1674 27.6487 78.1918 27.8077 78.1395C27.6086 78.1497 27.4095 78.1596 27.2101 78.1698ZM27.5184 86.9146C27.4806 86.8384 27.4099 86.8113 27.2423 86.8543C27.2808 86.8812 27.3193 86.9083 27.3577 86.9352C27.4113 86.9283 27.4648 86.9213 27.5184 86.9146ZM27.3344 73.2873C27.2718 73.2235 27.4968 73.2224 27.3712 73.1601C27.3297 73.1935 27.2877 73.2268 27.2462 73.2601C27.2756 73.2691 27.3051 73.2783 27.3344 73.2873ZM27.9523 76.4154C28.0306 76.3885 27.6585 76.3382 27.9332 76.2626C27.8512 76.2446 27.7729 76.2333 27.6926 76.2178C27.78 76.2087 27.8684 76.1985 27.9551 76.1899C27.9551 76.1899 27.9551 76.1898 27.9551 76.1898C27.9256 76.1211 27.8161 76.1656 27.7234 76.1641C27.685 76.1634 27.7492 76.1124 27.6656 76.1283C27.522 76.1558 27.6046 76.2585 27.4296 76.2588C27.4868 76.2227 27.439 76.1523 27.3222 76.1731C27.1941 76.1959 27.4088 76.2623 27.3025 76.3045C27.5822 76.244 27.4958 76.3691 27.281 76.3833C27.4459 76.4567 27.5132 76.3892 27.5055 76.314C27.6702 76.3599 27.5812 76.2923 27.7181 76.2812C27.8007 76.3286 27.7318 76.4911 27.9523 76.4154ZM27.649 79.8785C27.6384 79.8277 27.7325 79.7485 27.5935 79.7137C27.5126 79.6935 27.4499 79.773 27.3228 79.7182C27.3352 79.7676 27.3849 79.7789 27.4963 79.7704C27.5096 79.7817 27.5227 79.7931 27.5357 79.8044C27.514 79.8096 27.4925 79.8149 27.4708 79.8201C27.5166 79.826 27.5621 79.832 27.608 79.8378C27.5989 79.8497 27.5899 79.8618 27.5805 79.8738C27.6036 79.8752 27.6236 79.8776 27.649 79.8785ZM27.3275 71.4559C27.3289 71.47 27.3302 71.4839 27.3319 71.498C27.359 71.4965 27.3873 71.4946 27.4152 71.4928C27.4372 71.4916 27.4592 71.4903 27.4813 71.489C27.4025 71.4972 27.2717 71.5643 27.3558 71.5925C27.3979 71.6067 27.5477 71.5744 27.5738 71.6347C27.5661 71.591 27.5457 71.5505 27.533 71.5081C27.5775 71.512 27.6225 71.5156 27.667 71.5194C27.667 71.5194 27.6671 71.5194 27.6672 71.5193C27.6772 71.5052 27.6877 71.491 27.6977 71.4769C27.5743 71.4699 27.451 71.4629 27.3275 71.4559ZM27.6405 81.6082C27.5532 81.5601 27.5078 81.5441 27.3666 81.5667C27.3665 81.5668 27.3665 81.5668 27.3664 81.5669C27.429 81.5848 27.4915 81.6027 27.5541 81.6206C27.5829 81.6165 27.6117 81.6124 27.6405 81.6082ZM27.6743 74.2615C27.1379 74.1594 27.4667 74.3894 27.6494 74.3456C27.6578 74.3437 27.615 74.2711 27.6743 74.2615ZM27.3871 78.0097C27.3915 78.0377 27.3954 78.0658 27.3998 78.094C27.4657 78.0875 27.5314 78.0809 27.5973 78.0744C27.5274 78.0529 27.4571 78.0313 27.3871 78.0097ZM27.7619 86.5827C27.9091 86.5532 27.9625 86.4775 27.8023 86.4405C27.7836 86.4599 27.7648 86.4794 27.7461 86.4988C27.7277 86.462 27.7074 86.4257 27.69 86.3887C27.4849 86.3867 27.6039 86.4294 27.5474 86.4936C27.5383 86.5036 27.2836 86.5672 27.4755 86.5891C27.515 86.5935 27.5418 86.5259 27.6565 86.5729C27.6655 86.5523 27.6635 86.5346 27.6685 86.5152C27.7174 86.5138 27.7663 86.5124 27.8152 86.5108C27.7975 86.5348 27.7796 86.5587 27.7619 86.5827ZM27.633 79.5831C27.6443 79.5134 27.5624 79.5048 27.4175 79.4903C27.4339 79.5227 27.4501 79.5551 27.4665 79.5875C27.5219 79.586 27.5773 79.5847 27.633 79.5831ZM27.8088 85.9599C27.8325 85.9217 27.7146 85.9381 27.6922 85.9227C27.6079 85.8647 27.6922 85.8251 27.6393 85.7678C27.6621 85.7716 27.6834 85.7751 27.7054 85.7787C27.7054 85.7787 27.7054 85.7786 27.7054 85.7786C27.8048 85.5071 27.5374 85.6497 27.5809 85.8121C27.5371 85.8159 27.4932 85.8196 27.4497 85.8234C27.5263 85.8961 27.6 85.9631 27.8088 85.9599ZM27.6926 75.169C27.7201 75.1659 27.8944 75.1922 27.8128 75.1428C27.5582 75.1036 27.6846 75.1679 27.5866 75.1839C27.5622 75.1706 27.5384 75.1569 27.514 75.1436C27.4421 75.2236 27.5026 75.2353 27.6887 75.2062C27.7012 75.2041 27.6653 75.1721 27.6926 75.169ZM27.8181 74.6431C27.443 74.6321 27.6117 74.7331 27.7281 74.7294C27.7328 74.7155 27.6693 74.7046 27.6973 74.6899C27.7255 74.6749 27.8131 74.6711 27.8181 74.6431ZM27.7264 77.5365C27.728 77.5335 27.8857 77.5038 27.7623 77.5068C27.4701 77.5435 27.6582 77.6176 27.7599 77.6047C27.7549 77.5802 27.711 77.5638 27.7268 77.5365C27.7266 77.5365 27.7265 77.5365 27.7264 77.5365ZM27.8503 87.0424C27.8608 87.041 27.9241 86.9668 27.8653 86.9572C27.799 86.9493 27.728 86.9454 27.6595 86.9395C27.723 86.9804 27.6746 87.0631 27.8503 87.0422C27.8503 87.0423 27.8503 87.0423 27.8503 87.0424Z" fill="var(--stroke-0, #3B374F)"/>
</g>
<defs>
<radialGradient id="paint0_radial_9_2697" cx="0" cy="0" r="1" gradientTransform="matrix(7.56666 -16.3546 60.6972 48.7795 38.0402 51.6828)" gradientUnits="userSpaceOnUse">
<stop stop-color="#58DA38" stop-opacity="0"/>
<stop offset="1" stop-color="white"/>
</radialGradient>
<radialGradient id="paint1_radial_9_2697" cx="0" cy="0" r="1" gradientTransform="matrix(-27.5792 -42.7205 78.3382 -4.42347 56.3646 67.3111)" gradientUnits="userSpaceOnUse">
<stop stop-color="#FFEC8A" stop-opacity="0"/>
<stop offset="1" stop-color="#3CB7FC"/>
</radialGradient>
</defs>
</svg>
