<svg preserveAspectRatio="none" width="100%" height="100%" overflow="visible" style="display: block;" viewBox="0 0 140 25.9194" fill="none" xmlns="http://www.w3.org/2000/svg">
<g id="Frame 3">
<path id="Vector" d="M134.371 0H138.262V25.4215H134.371V0Z" fill="var(--fill-0, white)"/>
<path id="Vector_2" d="M77.1764 0H81.2352V9.43496H81.3064C81.8048 8.6042 82.5406 7.91587 83.5138 7.36995C84.5107 6.80029 85.6144 6.51546 86.8249 6.51546C88.8425 6.51546 90.4328 7.03765 91.5958 8.08202C92.7589 9.12639 93.3404 10.6929 93.3404 12.7817V25.421H89.2816V13.8498C89.2341 12.4019 88.9256 11.3575 88.3559 10.7167C87.7862 10.0521 86.8962 9.71978 85.6856 9.71978C84.9973 9.71978 84.3802 9.85033 83.8342 10.1114C83.2883 10.3488 82.8255 10.6929 82.4457 11.1439C82.0659 11.5712 81.7692 12.0815 81.5556 12.6749C81.342 13.2683 81.2352 13.8973 81.2352 14.5619V25.421H77.1764V0Z" fill="var(--fill-0, white)"/>
<path id="Vector_3" d="M71.3087 13.1733C71.1425 12.034 70.6797 11.1795 69.9201 10.6099C69.1843 10.0165 68.2468 9.71977 67.1074 9.71977C66.5853 9.71977 66.0275 9.81471 65.4341 10.0046C64.8407 10.1707 64.2947 10.503 63.7963 11.0015C63.2978 11.4762 62.8825 12.1527 62.5502 13.0309C62.2179 13.8854 62.0517 15.0128 62.0517 16.4132C62.0517 17.1728 62.1348 17.9323 62.301 18.6919C62.4908 19.4514 62.7757 20.1279 63.1554 20.7213C63.5589 21.3147 64.0693 21.8013 64.6864 22.181C65.3035 22.5371 66.0512 22.7151 66.9294 22.7151C68.1162 22.7151 69.0894 22.3472 69.8489 21.6114C70.6322 20.8756 71.1188 19.8431 71.3087 18.5139H75.3675C74.9877 20.9112 74.0739 22.7507 72.626 24.0324C71.2018 25.2904 69.303 25.9194 66.9294 25.9194C65.4815 25.9194 64.1998 25.6821 63.0842 25.2073C61.9924 24.7089 61.0667 24.0443 60.3071 23.2135C59.5476 22.3591 58.9661 21.3503 58.5626 20.1872C58.1828 19.0242 57.9929 17.7662 57.9929 16.4132C57.9929 15.0366 58.1828 13.743 58.5626 12.5325C58.9423 11.3219 59.512 10.2776 60.2715 9.39934C61.0311 8.49738 61.9686 7.79717 63.0842 7.29872C64.2235 6.77654 65.5527 6.51544 67.0718 6.51544C68.1399 6.51544 69.1487 6.65786 70.0981 6.94269C71.0713 7.20378 71.9258 7.60729 72.6616 8.15321C73.4211 8.69913 74.0383 9.38747 74.513 10.2182C74.9877 11.049 75.2725 12.034 75.3675 13.1733H71.3087Z" fill="var(--fill-0, white)"/>
<path id="Vector_4" d="M44.7134 19.5108C44.8321 20.6975 45.283 21.5283 46.0663 22.003C46.8496 22.4777 47.7872 22.7151 48.879 22.7151C49.2588 22.7151 49.686 22.6913 50.1607 22.6439C50.6592 22.5727 51.122 22.454 51.5493 22.2878C51.9765 22.1217 52.3207 21.8843 52.5818 21.5758C52.8666 21.2435 52.9972 20.8162 52.9734 20.294C52.9497 19.7719 52.7598 19.3446 52.4038 19.0123C52.0477 18.68 51.5849 18.4189 51.0152 18.229C50.4693 18.0154 49.8403 17.8374 49.1282 17.695C48.4162 17.5526 47.6922 17.3983 46.9564 17.2321C46.1969 17.066 45.4611 16.8642 44.749 16.6269C44.0607 16.3895 43.4317 16.0691 42.862 15.6656C42.3161 15.2621 41.877 14.7517 41.5447 14.1346C41.2124 13.4938 41.0462 12.7105 41.0462 11.7848C41.0462 10.7879 41.2836 9.95713 41.7583 9.29253C42.2567 8.60419 42.8739 8.05827 43.6097 7.65476C44.3692 7.22752 45.2 6.93082 46.1019 6.76467C47.0276 6.59852 47.9058 6.51544 48.7366 6.51544C49.686 6.51544 50.588 6.62225 51.4425 6.83588C52.3207 7.02576 53.104 7.3462 53.7923 7.79717C54.5044 8.24815 55.0859 8.84155 55.5369 9.57735C56.0116 10.2894 56.3083 11.1558 56.427 12.1764H52.1901C52.0003 11.2033 51.5493 10.5505 50.8372 10.2182C50.1489 9.88592 49.3537 9.71977 48.4518 9.71977C48.1669 9.71977 47.8228 9.7435 47.4193 9.79098C47.0395 9.83845 46.6716 9.93339 46.3156 10.0758C45.9833 10.1945 45.6984 10.3844 45.4611 10.6455C45.2237 10.8828 45.105 11.2033 45.105 11.6068C45.105 12.1052 45.2712 12.5087 45.6035 12.8173C45.9595 13.1258 46.4105 13.3869 46.9564 13.6006C47.5261 13.7904 48.1669 13.9566 48.879 14.099C49.5911 14.2414 50.3269 14.3957 51.0864 14.5619C51.8222 14.728 52.5462 14.9298 53.2583 15.1671C53.9703 15.4045 54.5993 15.7249 55.1452 16.1284C55.7149 16.5319 56.1659 17.0422 56.4982 17.6594C56.8542 18.2765 57.0322 19.036 57.0322 19.938C57.0322 21.0298 56.783 21.9555 56.2846 22.7151C55.7861 23.4746 55.1334 24.0918 54.3264 24.5665C53.5431 25.0412 52.6649 25.3854 51.6917 25.599C50.7185 25.8126 49.7572 25.9194 48.8078 25.9194C47.6448 25.9194 46.5648 25.7889 45.5679 25.5278C44.5947 25.2667 43.7402 24.875 43.0044 24.3529C42.2923 23.8069 41.7227 23.1423 41.2954 22.359C40.8919 21.552 40.6783 20.6026 40.6546 19.5108H44.7134Z" fill="var(--fill-0, white)"/>
<path id="Vector_5" d="M30.2155 25.9194C28.7439 25.9194 27.4266 25.6821 26.2635 25.2073C25.1242 24.7089 24.1511 24.0324 23.344 23.1779C22.5608 22.3234 21.9555 21.3028 21.5283 20.116C21.1248 18.9292 20.923 17.6238 20.923 16.1996C20.923 14.7992 21.1248 13.5056 21.5283 12.3188C21.9555 11.132 22.5608 10.1114 23.344 9.25692C24.1511 8.40244 25.1242 7.73783 26.2635 7.26312C27.4266 6.76467 28.7439 6.51544 30.2155 6.51544C31.6872 6.51544 32.9926 6.76467 34.1319 7.26312C35.295 7.73783 36.2682 8.40244 37.0514 9.25692C37.8584 10.1114 38.4637 11.132 38.8672 12.3188C39.2945 13.5056 39.5081 14.7992 39.5081 16.1996C39.5081 17.6238 39.2945 18.9292 38.8672 20.116C38.4637 21.3028 37.8584 22.3234 37.0514 23.1779C36.2682 24.0324 35.295 24.7089 34.1319 25.2073C32.9926 25.6821 31.6872 25.9194 30.2155 25.9194ZM30.2155 22.7151C31.1175 22.7151 31.9008 22.5252 32.5654 22.1454C33.23 21.7657 33.7759 21.2672 34.2031 20.6501C34.6304 20.0329 34.939 19.3446 35.1288 18.5851C35.3425 17.8018 35.4493 17.0066 35.4493 16.1996C35.4493 15.4163 35.3425 14.6331 35.1288 13.8498C34.939 13.0665 34.6304 12.3782 34.2031 11.7848C33.7759 11.1676 33.23 10.6692 32.5654 10.2894C31.9008 9.90966 31.1175 9.71977 30.2155 9.71977C29.3136 9.71977 28.5303 9.90966 27.8657 10.2894C27.2011 10.6692 26.6552 11.1676 26.2279 11.7848C25.8007 12.3782 25.4803 13.0665 25.2666 13.8498C25.0768 14.6331 24.9818 15.4163 24.9818 16.1996C24.9818 17.0066 25.0768 17.8018 25.2666 18.5851C25.4803 19.3446 25.8007 20.0329 26.2279 20.6501C26.6552 21.2672 27.2011 21.7657 27.8657 22.1454C28.5303 22.5252 29.3136 22.7151 30.2155 22.7151Z" fill="var(--fill-0, white)"/>
<path id="Vector_6" d="M15.391 13.1733C15.2248 12.034 14.762 11.1795 14.0024 10.6099C13.2666 10.0165 12.3291 9.71977 11.1898 9.71977C10.6676 9.71977 10.1098 9.81471 9.51638 10.0046C8.92299 10.1707 8.37707 10.503 7.87862 11.0015C7.38017 11.4762 6.96479 12.1527 6.63249 13.0309C6.30019 13.8854 6.13404 15.0128 6.13404 16.4132C6.13404 17.1728 6.21712 17.9323 6.38327 18.6919C6.57315 19.4514 6.85798 20.1279 7.23775 20.7213C7.64126 21.3147 8.15158 21.8013 8.76871 22.181C9.38584 22.5371 10.1335 22.7151 11.0117 22.7151C12.1985 22.7151 13.1717 22.3472 13.9312 21.6114C14.7145 20.8756 15.2011 19.8431 15.391 18.5139H19.4498C19.07 20.9112 18.1562 22.7507 16.7083 24.0324C15.2842 25.2904 13.3853 25.9194 11.0117 25.9194C9.56385 25.9194 8.28212 25.6821 7.16654 25.2073C6.0747 24.7089 5.14901 24.0443 4.38946 23.2135C3.62992 22.3591 3.04839 21.3503 2.64489 20.1872C2.26512 19.0242 2.07523 17.7662 2.07523 16.4132C2.07523 15.0366 2.26512 13.743 2.64489 12.5325C3.02466 11.3219 3.59432 10.2776 4.35386 9.39934C5.1134 8.49738 6.05096 7.79717 7.16654 7.29872C8.30586 6.77654 9.63506 6.51544 11.1541 6.51544C12.2223 6.51544 13.231 6.65786 14.1805 6.94269C15.1536 7.20378 16.0081 7.60729 16.7439 8.15321C17.5035 8.69913 18.1206 9.38747 18.5953 10.2182C19.07 11.049 19.3548 12.034 19.4498 13.1733H15.391Z" fill="var(--fill-0, white)"/>
<circle id="Ellipse 1" cx="107.131" cy="14.8058" r="10.9153" fill="url(#paint0_linear_9_2523)"/>
<circle id="Ellipse 2" cx="120.839" cy="14.8058" r="10.9153" fill="url(#paint1_linear_9_2523)"/>
</g>
<defs>
<linearGradient id="paint0_linear_9_2523" x1="113.604" y1="6.1751" x2="100.912" y2="23.5635" gradientUnits="userSpaceOnUse">
<stop stop-color="#409B00" stop-opacity="0"/>
<stop offset="0.9" stop-color="#409B00"/>
</linearGradient>
<linearGradient id="paint1_linear_9_2523" x1="115.128" y1="24.9596" x2="126.804" y2="6.30203" gradientUnits="userSpaceOnUse">
<stop stop-color="#317700" stop-opacity="0"/>
<stop offset="0.845295" stop-color="#409B00"/>
</linearGradient>
</defs>
</svg>
