<svg preserveAspectRatio="none" width="100%" height="100%" overflow="visible" style="display: block;" viewBox="0 0 44.8594 44" fill="none" xmlns="http://www.w3.org/2000/svg">
<g id="OIP 1 [Vectorized]" clip-path="url(#clip0_9_2551)">
<path id="Vector" d="M11.9439 17.7931L14.2148 20.0487C14.7589 20.5876 15.3273 21.1179 15.8478 21.6772C14.2825 23.213 12.7266 24.7584 11.18 26.3131C10.022 27.4745 8.88826 28.6309 7.75165 29.821C6.72504 30.8492 5.87198 32.5616 5.93755 34.0411C6.07991 36.3347 7.85039 38.3235 10.1753 38.4919C12.7303 38.677 14.2094 37.1305 15.8854 35.4935L18.6588 32.7439C19.9345 31.4728 21.6645 29.8464 22.8259 28.5566C23.0852 28.9375 26.3893 32.2941 26.7551 32.5362C26.1526 33.0911 25.3727 33.921 24.7714 34.5197L20.0376 39.2285C16.2223 42.9754 8.42971 46.9999 2.06079 39.5121C0.47942 37.1754 0.0956146 34.4282 0.62306 31.689C0.903341 30.2372 1.48198 28.8596 2.32236 27.6431C3.04724 26.5816 4.2841 25.3878 5.20523 24.4536L9.27412 20.3671L10.8264 18.8207C11.1824 18.4665 11.5327 18.0714 11.9439 17.7931Z" fill="var(--fill-0, #FE0000)"/>
<path id="Vector_2" d="M32.4917 0H36.3019C36.4633 0.116857 37.3909 0.28807 37.6683 0.386775C39.0494 0.878118 40.3739 1.65354 41.4352 2.65598C43.3722 4.49011 44.5096 7.01289 44.6016 9.67897C44.669 12.1558 43.8763 14.6661 42.4023 16.6561C41.7313 17.5621 40.7865 18.4455 40.0012 19.2634C37.7297 21.6294 35.322 23.8806 33.0672 26.2607C32.0329 25.0116 30.3172 23.5455 29.1745 22.3012C29.1971 22.1375 34.2434 17.1973 34.7208 16.6698C36.4912 14.7132 38.9443 13.1587 39.0186 10.1591C39.0478 8.98034 38.5231 7.67585 37.7175 6.84303C36.873 5.97313 35.7156 5.47723 34.5033 5.46588C31.6537 5.42923 29.9543 7.60727 28.0944 9.44217L22.1987 15.311C21.8273 15.0536 21.2056 14.3487 20.8552 13.993C19.9985 13.1276 19.1373 12.2668 18.2716 11.4106C19.269 10.2679 20.9452 8.70113 22.0417 7.60607L25.0702 4.59233C26.1545 3.52166 27.3737 2.25735 28.6722 1.4727C29.4555 1.01962 30.294 0.660331 31.1404 0.344502C31.4727 0.220512 32.2334 0.162726 32.4917 0Z" fill="var(--fill-0, #FE0000)"/>
<path id="Vector_3" d="M0 0H3.67665H4.38432C5.73401 2.02896 7.1928 4.01615 8.56118 6.03367C8.94816 6.60425 10.0356 8.05527 10.2985 8.59298C9.95079 9.01128 9.53777 9.4307 9.14577 9.81041C8.56457 9.53979 7.9469 9.01381 7.39376 8.63938C5.78286 7.53281 4.18012 6.41446 2.58564 5.28434C1.92669 4.82208 0.66929 3.89389 0 3.55415V3.53758V0Z" fill="var(--fill-0, #FE0000)"/>
<path id="Vector_4" d="M44.2281 43.8103L40.5515 43.8103L39.8438 43.8103C38.4941 41.7813 37.0354 39.7942 35.667 37.7766C35.28 37.206 34.1925 35.755 33.9297 35.2173C34.2774 34.799 34.6904 34.3796 35.0824 33.9999C35.6636 34.2705 36.2813 34.7965 36.8344 35.1709C38.4453 36.2775 40.048 37.3958 41.6425 38.526C42.3015 38.9882 43.5589 39.9164 44.2281 40.2562L44.2281 40.2727L44.2281 43.8103Z" fill="var(--fill-0, #FE0000)"/>
</g>
<defs>
<clipPath id="clip0_9_2551">
<rect width="44.8594" height="44" fill="white"/>
</clipPath>
</defs>
</svg>
