<svg preserveAspectRatio="none" width="100%" height="100%" overflow="visible" style="display: block;" viewBox="0 0 58.9719 10.9178" fill="none" xmlns="http://www.w3.org/2000/svg">
<g id="Frame 3">
<path id="Vector" d="M56.6008 0H58.2399V10.7083H56.6008V0Z" fill="var(--fill-0, #3B374F)"/>
<path id="Vector_2" d="M32.509 0H34.2187V3.97427H34.2487C34.4586 3.62433 34.7686 3.33439 35.1785 3.10443C35.5984 2.86447 36.0633 2.74449 36.5732 2.74449C37.4231 2.74449 38.093 2.96445 38.5829 3.40437C39.0728 3.84429 39.3177 4.50417 39.3177 5.38401V10.708H37.6081V5.83393C37.5881 5.22404 37.4581 4.78412 37.2181 4.51417C36.9782 4.23422 36.6032 4.09425 36.0933 4.09425C35.8034 4.09425 35.5434 4.14924 35.3135 4.25922C35.0835 4.3592 34.8886 4.50417 34.7286 4.69414C34.5686 4.8741 34.4436 5.08906 34.3537 5.33902C34.2637 5.58897 34.2187 5.85392 34.2187 6.13387V10.708H32.509V0Z" fill="var(--fill-0, #3B374F)"/>
<path id="Vector_3" d="M30.0372 5.54879C29.9672 5.06888 29.7723 4.70895 29.4523 4.46899C29.1424 4.21904 28.7475 4.09406 28.2675 4.09406C28.0476 4.09406 27.8126 4.13405 27.5627 4.21404C27.3127 4.28403 27.0828 4.424 26.8728 4.63396C26.6628 4.83392 26.4879 5.11887 26.3479 5.4888C26.2079 5.84874 26.1379 6.32365 26.1379 6.91354C26.1379 7.23348 26.1729 7.55342 26.2429 7.87337C26.3229 8.19331 26.4429 8.47825 26.6028 8.72821C26.7728 8.97816 26.9878 9.18312 27.2477 9.3431C27.5077 9.49307 27.8226 9.56805 28.1926 9.56805C28.6925 9.56805 29.1024 9.41308 29.4223 9.10314C29.7523 8.7932 29.9572 8.35828 30.0372 7.79838H31.7469C31.5869 8.80819 31.202 9.58305 30.5921 10.123C29.9922 10.6529 29.1924 10.9178 28.1926 10.9178C27.5827 10.9178 27.0428 10.8178 26.5729 10.6179C26.1129 10.4079 25.723 10.128 25.4031 9.77802C25.0831 9.41808 24.8382 8.99316 24.6682 8.50325C24.5082 8.01334 24.4282 7.48344 24.4282 6.91354C24.4282 6.33365 24.5082 5.78875 24.6682 5.27884C24.8282 4.76894 25.0681 4.32902 25.3881 3.95909C25.708 3.57916 26.1029 3.28421 26.5729 3.07425C27.0528 2.85429 27.6127 2.74431 28.2525 2.74431C28.7025 2.74431 29.1274 2.8043 29.5273 2.92428C29.9372 3.03426 30.2972 3.20423 30.6071 3.43418C30.9271 3.66414 31.187 3.95409 31.387 4.30402C31.5869 4.65396 31.7069 5.06888 31.7469 5.54879H30.0372Z" fill="var(--fill-0, #3B374F)"/>
<path id="Vector_4" d="M18.8346 8.2183C18.8846 8.71821 19.0746 9.06815 19.4045 9.26811C19.7345 9.46807 20.1294 9.56805 20.5893 9.56805C20.7493 9.56805 20.9293 9.55806 21.1292 9.53806C21.3392 9.50806 21.5341 9.45807 21.7141 9.38809C21.8941 9.3181 22.0391 9.21812 22.149 9.08814C22.269 8.94817 22.324 8.7682 22.314 8.54824C22.304 8.32828 22.224 8.14831 22.074 8.00834C21.9241 7.86837 21.7291 7.75839 21.4892 7.6784C21.2592 7.58842 20.9942 7.51343 20.6943 7.45344C20.3944 7.39345 20.0894 7.32847 19.7795 7.25848C19.4595 7.18849 19.1496 7.10351 18.8496 7.00353C18.5597 6.90354 18.2947 6.76857 18.0548 6.5986C17.8248 6.42863 17.6399 6.21367 17.4999 5.95372C17.3599 5.68377 17.2899 5.35383 17.2899 4.9639C17.2899 4.54398 17.3899 4.19404 17.5899 3.91409C17.7998 3.62415 18.0598 3.39419 18.3697 3.22422C18.6897 3.04425 19.0396 2.91928 19.4195 2.84929C19.8095 2.7793 20.1794 2.74431 20.5293 2.74431C20.9293 2.74431 21.3092 2.7893 21.6691 2.87928C22.0391 2.95927 22.369 3.09425 22.6589 3.28421C22.9589 3.47418 23.2038 3.72413 23.3938 4.03407C23.5938 4.33402 23.7187 4.69895 23.7687 5.12887H21.9841C21.9041 4.71895 21.7141 4.444 21.4142 4.30402C21.1242 4.16405 20.7893 4.09406 20.4094 4.09406C20.2894 4.09406 20.1444 4.10406 19.9744 4.12406C19.8145 4.14405 19.6595 4.18404 19.5095 4.24403C19.3695 4.29402 19.2496 4.37401 19.1496 4.48399C19.0496 4.58397 18.9996 4.71895 18.9996 4.88892C18.9996 5.09888 19.0696 5.26884 19.2096 5.39882C19.3595 5.5288 19.5495 5.63878 19.7795 5.72876C20.0194 5.80875 20.2894 5.87873 20.5893 5.93872C20.8893 5.99871 21.1992 6.0637 21.5192 6.13369C21.8291 6.20367 22.134 6.28866 22.434 6.38864C22.7339 6.48862 22.9989 6.6236 23.2288 6.79356C23.4688 6.96353 23.6588 7.17849 23.7987 7.43845C23.9487 7.6984 24.0237 8.01834 24.0237 8.39827C24.0237 8.85818 23.9187 9.24811 23.7087 9.56805C23.4988 9.88799 23.2238 10.1479 22.8839 10.3479C22.554 10.5479 22.184 10.6928 21.7741 10.7828C21.3642 10.8728 20.9593 10.9178 20.5593 10.9178C20.0694 10.9178 19.6145 10.8628 19.1946 10.7528C18.7847 10.6429 18.4247 10.4779 18.1148 10.2579C17.8148 10.028 17.5749 9.74802 17.3949 9.41808C17.2249 9.07814 17.135 8.67822 17.125 8.2183H18.8346Z" fill="var(--fill-0, #3B374F)"/>
<path id="Vector_5" d="M12.7277 10.9178C12.1078 10.9178 11.5529 10.8178 11.063 10.6179C10.5831 10.4079 10.1731 10.123 9.83319 9.76302C9.50325 9.40308 9.2483 8.97316 9.06833 8.47326C8.89837 7.97335 8.81338 7.42345 8.81338 6.82356C8.81338 6.23367 8.89837 5.68877 9.06833 5.18886C9.2483 4.68895 9.50325 4.25903 9.83319 3.8991C10.1731 3.53916 10.5831 3.25921 11.063 3.05925C11.5529 2.84929 12.1078 2.74431 12.7277 2.74431C13.3475 2.74431 13.8974 2.84929 14.3774 3.05925C14.8673 3.25921 15.2772 3.53916 15.6071 3.8991C15.9471 4.25903 16.202 4.68895 16.372 5.18886C16.552 5.68877 16.6419 6.23367 16.6419 6.82356C16.6419 7.42345 16.552 7.97335 16.372 8.47326C16.202 8.97316 15.9471 9.40308 15.6071 9.76302C15.2772 10.123 14.8673 10.4079 14.3774 10.6179C13.8974 10.8178 13.3475 10.9178 12.7277 10.9178ZM12.7277 9.56805C13.1076 9.56805 13.4375 9.48807 13.7175 9.3281C13.9974 9.16813 14.2274 8.95817 14.4074 8.69821C14.5873 8.43826 14.7173 8.14832 14.7973 7.82837C14.8873 7.49843 14.9323 7.1635 14.9323 6.82356C14.9323 6.49362 14.8873 6.16368 14.7973 5.83374C14.7173 5.5038 14.5873 5.21386 14.4074 4.9639C14.2274 4.70395 13.9974 4.49399 13.7175 4.33402C13.4375 4.17405 13.1076 4.09406 12.7277 4.09406C12.3477 4.09406 12.0178 4.17405 11.7378 4.33402C11.4579 4.49399 11.2279 4.70395 11.048 4.9639C10.868 5.21386 10.733 5.5038 10.643 5.83374C10.5631 6.16368 10.5231 6.49362 10.5231 6.82356C10.5231 7.1635 10.5631 7.49843 10.643 7.82837C10.733 8.14832 10.868 8.43826 11.048 8.69821C11.2279 8.95817 11.4579 9.16813 11.7378 9.3281C12.0178 9.48807 12.3477 9.56805 12.7277 9.56805Z" fill="var(--fill-0, #3B374F)"/>
<path id="Vector_6" d="M6.4832 5.54879C6.41322 5.06888 6.21825 4.70895 5.89831 4.46899C5.58837 4.21904 5.19344 4.09406 4.71353 4.09406C4.49357 4.09406 4.25861 4.13405 4.00866 4.21404C3.7587 4.28403 3.52875 4.424 3.31878 4.63396C3.10882 4.83392 2.93386 5.11887 2.79388 5.4888C2.65391 5.84874 2.58392 6.32365 2.58392 6.91354C2.58392 7.23348 2.61891 7.55342 2.6889 7.87337C2.76889 8.19331 2.88886 8.47825 3.04883 8.72821C3.2188 8.97816 3.43376 9.18312 3.69372 9.3431C3.95367 9.49307 4.26861 9.56805 4.63854 9.56805C5.13845 9.56805 5.54837 9.41308 5.86832 9.10314C6.19826 8.7932 6.40322 8.35828 6.4832 7.79838H8.19289C8.03292 8.80819 7.64799 9.58305 7.0381 10.123C6.43821 10.6529 5.63836 10.9178 4.63854 10.9178C4.02865 10.9178 3.48875 10.8178 3.01884 10.6179C2.55892 10.4079 2.169 10.128 1.84906 9.77802C1.52911 9.41808 1.28416 8.99316 1.11419 8.50325C0.95422 8.01334 0.874235 7.48344 0.874235 6.91354C0.874235 6.33365 0.95422 5.78875 1.11419 5.27884C1.27416 4.76894 1.51412 4.32902 1.83406 3.95909C2.154 3.57916 2.54893 3.28421 3.01884 3.07425C3.49875 2.85429 4.05865 2.74431 4.69853 2.74431C5.14845 2.74431 5.57337 2.8043 5.9733 2.92428C6.38322 3.03426 6.74315 3.20423 7.0531 3.43418C7.37304 3.66414 7.63299 3.95409 7.83295 4.30402C8.03292 4.65396 8.1529 5.06888 8.19289 5.54879H6.4832Z" fill="var(--fill-0, #3B374F)"/>
<circle id="Ellipse 1" cx="45.1268" cy="6.2366" r="4.59784" fill="url(#paint0_linear_9_2672)"/>
<circle id="Ellipse 2" cx="50.9009" cy="6.2366" r="4.59784" fill="url(#paint1_linear_9_2672)"/>
</g>
<defs>
<linearGradient id="paint0_linear_9_2672" x1="47.8534" y1="2.6011" x2="42.5071" y2="9.92557" gradientUnits="userSpaceOnUse">
<stop stop-color="#317700" stop-opacity="0"/>
<stop offset="0.9" stop-color="#317700"/>
</linearGradient>
<linearGradient id="paint1_linear_9_2672" x1="48.495" y1="10.5137" x2="53.4137" y2="2.65457" gradientUnits="userSpaceOnUse">
<stop stop-color="#317700" stop-opacity="0"/>
<stop offset="0.845295" stop-color="#317700"/>
</linearGradient>
</defs>
</svg>
