<svg preserveAspectRatio="none" width="100%" height="100%" overflow="visible" style="display: block;" viewBox="0 0 130.909 24.2363" fill="none" xmlns="http://www.w3.org/2000/svg">
<g id="Coschool Logo">
<path id="Vector" d="M125.645 0H129.284V23.7708H125.645V0Z" fill="var(--fill-0, #262626)"/>
<path id="Vector_2" d="M72.165 0H75.9602V8.8223H76.0268C76.4929 8.04549 77.1809 7.40185 78.0909 6.89138C79.023 6.35871 80.0551 6.09238 81.187 6.09238C83.0735 6.09238 84.5606 6.58066 85.6481 7.55721C86.7356 8.53377 87.2794 9.9986 87.2794 11.9517V23.7703H83.4841V12.9505C83.4397 11.5966 83.1512 10.62 82.6185 10.0208C82.0859 9.39935 81.2536 9.08863 80.1217 9.08863C79.478 9.08863 78.901 9.2107 78.3905 9.45484C77.88 9.67678 77.4472 9.9986 77.0921 10.4203C76.737 10.8198 76.4596 11.297 76.2598 11.8518C76.0601 12.4067 75.9602 12.9949 75.9602 13.6163V23.7703H72.165V0Z" fill="var(--fill-0, #262626)"/>
<path id="Vector_3" d="M66.6782 12.3179C66.5229 11.2526 66.0901 10.4536 65.3799 9.92091C64.6918 9.36605 63.8152 9.08862 62.7498 9.08862C62.2616 9.08862 61.74 9.1774 61.1851 9.35495C60.6303 9.51032 60.1198 9.82104 59.6537 10.2871C59.1876 10.731 58.7992 11.3636 58.4885 12.1847C58.1778 12.9837 58.0224 14.038 58.0224 15.3475C58.0224 16.0577 58.1001 16.7679 58.2554 17.4781C58.433 18.1883 58.6993 18.8209 59.0544 19.3758C59.4318 19.9306 59.9089 20.3856 60.486 20.7407C61.063 21.0736 61.7622 21.2401 62.5834 21.2401C63.6931 21.2401 64.6031 20.8961 65.3133 20.208C66.0457 19.52 66.5007 18.5546 66.6782 17.3117H70.4735C70.1184 19.5533 69.2639 21.2734 67.91 22.4719C66.5784 23.6482 64.8028 24.2363 62.5834 24.2363C61.2295 24.2363 60.031 24.0144 58.9879 23.5705C57.9669 23.1044 57.1013 22.483 56.3911 21.7062C55.6809 20.9072 55.1371 19.9639 54.7598 18.8764C54.4047 17.7888 54.2272 16.6125 54.2272 15.3475C54.2272 14.0602 54.4047 12.8506 54.7598 11.7187C55.1149 10.5867 55.6476 9.61019 56.3578 8.789C57.068 7.94561 57.9447 7.29087 58.9879 6.82479C60.0532 6.33651 61.2961 6.09237 62.7165 6.09237C63.7153 6.09237 64.6586 6.22554 65.5463 6.49187C66.4563 6.73601 67.2553 7.11331 67.9433 7.62379C68.6536 8.13426 69.2306 8.7779 69.6745 9.55471C70.1184 10.3315 70.3847 11.2526 70.4735 12.3179H66.6782Z" fill="var(--fill-0, #262626)"/>
<path id="Vector_4" d="M41.8099 18.2438C41.9209 19.3536 42.3426 20.1304 43.075 20.5743C43.8074 21.0181 44.6841 21.2401 45.7051 21.2401C46.0602 21.2401 46.4597 21.2179 46.9036 21.1735C47.3697 21.1069 47.8025 20.9959 48.202 20.8406C48.6015 20.6852 48.9233 20.4633 49.1674 20.1748C49.4337 19.864 49.5558 19.4645 49.5336 18.9763C49.5114 18.488 49.3339 18.0885 49.001 17.7778C48.668 17.467 48.2352 17.2229 47.7026 17.0453C47.1921 16.8456 46.604 16.6791 45.9381 16.546C45.2723 16.4128 44.5954 16.2685 43.9073 16.1132C43.1971 15.9578 42.5091 15.7692 41.8432 15.5472C41.1996 15.3253 40.6114 15.0256 40.0788 14.6483C39.5683 14.271 39.1577 13.7938 38.847 13.2168C38.5363 12.6175 38.3809 11.8851 38.3809 11.0195C38.3809 10.0874 38.6028 9.31057 39.0467 8.68912C39.5128 8.04548 40.0899 7.53501 40.7779 7.1577C41.4881 6.7582 42.2649 6.48077 43.1083 6.32541C43.9739 6.17005 44.7951 6.09237 45.5719 6.09237C46.4597 6.09237 47.3031 6.19224 48.1021 6.39199C48.9233 6.56955 49.6557 6.86918 50.2993 7.29087C50.9652 7.71257 51.5089 8.26743 51.9306 8.95546C52.3745 9.62129 52.6519 10.4314 52.7629 11.3857H48.8012C48.6236 10.4758 48.202 9.86543 47.5361 9.55471C46.8925 9.24398 46.149 9.08862 45.3056 9.08862C45.0392 9.08862 44.7174 9.11082 44.3401 9.1552C43.985 9.19959 43.641 9.28837 43.3081 9.42154C42.9974 9.53251 42.731 9.71007 42.5091 9.9542C42.2871 10.1761 42.1762 10.4758 42.1762 10.8531C42.1762 11.3192 42.3315 11.6965 42.6422 11.985C42.9752 12.2735 43.3969 12.5177 43.9073 12.7174C44.44 12.895 45.0392 13.0503 45.7051 13.1835C46.3709 13.3167 47.0589 13.4609 47.7692 13.6163C48.4572 13.7717 49.1341 13.9603 49.8 14.1822C50.4658 14.4042 51.0539 14.7038 51.5644 15.0811C52.0971 15.4584 52.5188 15.9356 52.8295 16.5127C53.1624 17.0897 53.3289 17.7999 53.3289 18.6433C53.3289 19.6643 53.0958 20.5299 52.6297 21.2401C52.1637 21.9503 51.5533 22.5274 50.7987 22.9713C50.0663 23.4151 49.2451 23.737 48.3351 23.9367C47.4251 24.1365 46.5263 24.2363 45.6385 24.2363C44.551 24.2363 43.5411 24.1143 42.6089 23.8701C41.699 23.626 40.9 23.2598 40.2119 22.7715C39.5461 22.261 39.0134 21.6396 38.6139 20.9072C38.2366 20.1526 38.0369 19.2648 38.0147 18.2438H41.8099Z" fill="var(--fill-0, #262626)"/>
<path id="Vector_5" d="M28.2535 24.2363C26.8774 24.2363 25.6456 24.0144 24.5581 23.5705C23.4928 23.1044 22.5828 22.4719 21.8282 21.6729C21.0958 20.8739 20.5298 19.9195 20.1303 18.8098C19.753 17.7001 19.5643 16.4794 19.5643 15.1477C19.5643 13.8382 19.753 12.6286 20.1303 11.5189C20.5298 10.4092 21.0958 9.45483 21.8282 8.65583C22.5828 7.85683 23.4928 7.23538 24.5581 6.79149C25.6456 6.32541 26.8774 6.09237 28.2535 6.09237C29.6295 6.09237 30.8502 6.32541 31.9156 6.79149C33.0031 7.23538 33.9131 7.85683 34.6455 8.65583C35.4001 9.45483 35.966 10.4092 36.3433 11.5189C36.7429 12.6286 36.9426 13.8382 36.9426 15.1477C36.9426 16.4794 36.7429 17.7001 36.3433 18.8098C35.966 19.9195 35.4001 20.8739 34.6455 21.6729C33.9131 22.4719 33.0031 23.1044 31.9156 23.5705C30.8502 24.0144 29.6295 24.2363 28.2535 24.2363ZM28.2535 21.2401C29.0969 21.2401 29.8293 21.0625 30.4507 20.7074C31.0722 20.3523 31.5826 19.8862 31.9821 19.3092C32.3816 18.7321 32.6702 18.0885 32.8477 17.3783C33.0475 16.6458 33.1473 15.9023 33.1473 15.1477C33.1473 14.4153 33.0475 13.6829 32.8477 12.9505C32.6702 12.218 32.3816 11.5744 31.9821 11.0195C31.5826 10.4425 31.0722 9.9764 30.4507 9.62129C29.8293 9.26618 29.0969 9.08862 28.2535 9.08862C27.4101 9.08862 26.6777 9.26618 26.0562 9.62129C25.4348 9.9764 24.9243 10.4425 24.5248 11.0195C24.1253 11.5744 23.8257 12.218 23.6259 12.9505C23.4484 13.6829 23.3596 14.4153 23.3596 15.1477C23.3596 15.9023 23.4484 16.6458 23.6259 17.3783C23.8257 18.0885 24.1253 18.7321 24.5248 19.3092C24.9243 19.8862 25.4348 20.3523 26.0562 20.7074C26.6777 21.0625 27.4101 21.2401 28.2535 21.2401Z" fill="var(--fill-0, #262626)"/>
<path id="Vector_6" d="M14.3916 12.3179C14.2362 11.2526 13.8034 10.4536 13.0932 9.92091C12.4052 9.36605 11.5285 9.08862 10.4632 9.08862C9.97489 9.08862 9.45332 9.1774 8.89846 9.35495C8.3436 9.51032 7.83313 9.82104 7.36704 10.2871C6.90096 10.731 6.51256 11.3636 6.20183 12.1847C5.89111 12.9837 5.73575 14.038 5.73575 15.3475C5.73575 16.0577 5.81343 16.7679 5.96879 17.4781C6.14635 18.1883 6.41268 18.8209 6.76779 19.3758C7.1451 19.9306 7.62228 20.3856 8.19934 20.7407C8.77639 21.0736 9.47552 21.2401 10.2967 21.2401C11.4064 21.2401 12.3164 20.8961 13.0266 20.208C13.759 19.52 14.214 18.5546 14.3916 17.3117H18.1868C17.8317 19.5533 16.9772 21.2734 15.6234 22.4719C14.2917 23.6482 12.5162 24.2363 10.2967 24.2363C8.94285 24.2363 7.74435 24.0144 6.70121 23.5705C5.68026 23.1044 4.81468 22.483 4.10446 21.7062C3.39424 20.9072 2.85047 19.9639 2.47317 18.8764C2.11805 17.7888 1.9405 16.6125 1.9405 15.3475C1.9405 14.0602 2.11805 12.8506 2.47317 11.7187C2.82828 10.5867 3.36094 9.61019 4.07117 8.789C4.78139 7.94561 5.65807 7.29087 6.70121 6.82479C7.76654 6.33651 9.00943 6.09237 10.4299 6.09237C11.4286 6.09237 12.3719 6.22554 13.2597 6.49187C14.1696 6.73601 14.9686 7.11331 15.6567 7.62379C16.3669 8.13426 16.944 8.7779 17.3878 9.55471C17.8317 10.3315 18.0981 11.2526 18.1868 12.3179H14.3916Z" fill="var(--fill-0, #262626)"/>
<circle id="Ellipse 1" cx="100.175" cy="13.8444" r="10.2065" fill="url(#paint0_linear_9_2561)"/>
<circle id="Ellipse 2" cx="112.992" cy="13.8444" r="10.2065" fill="url(#paint1_linear_9_2561)"/>
</g>
<defs>
<linearGradient id="paint0_linear_9_2561" x1="106.228" y1="5.77413" x2="94.3595" y2="22.0334" gradientUnits="userSpaceOnUse">
<stop stop-color="#317700" stop-opacity="0"/>
<stop offset="0.9" stop-color="#317700"/>
</linearGradient>
<linearGradient id="paint1_linear_9_2561" x1="107.652" y1="23.3389" x2="118.57" y2="5.89281" gradientUnits="userSpaceOnUse">
<stop stop-color="#317700" stop-opacity="0"/>
<stop offset="0.845295" stop-color="#317700"/>
</linearGradient>
</defs>
</svg>
