<svg preserveAspectRatio="none" width="100%" height="100%" overflow="visible" style="display: block;" viewBox="0 0 32.6504 35.6445" fill="none" xmlns="http://www.w3.org/2000/svg">
<path id="&#226;&#128;&#156;" d="M0 35.6445V23.3828C0 20.4362 0.380208 17.5371 1.14062 14.6855C1.94857 11.834 3.08919 9.14876 4.5625 6.62988C6.08333 4.111 7.88932 1.90104 9.98047 0L15.042 3.56445C12.8083 6.7487 11.1686 9.88542 10.123 12.9746C9.07747 16.0638 8.55469 19.4857 8.55469 23.2402V35.6445H0ZM17.6084 35.6445V23.3828C17.6084 20.4362 17.9886 17.5371 18.749 14.6855C19.557 11.834 20.6976 9.14876 22.1709 6.62988C23.6917 4.111 25.4977 1.90104 27.5889 0L32.6504 3.56445C30.4167 6.7487 28.777 9.88542 27.7314 12.9746C26.6859 16.0638 26.1631 19.4857 26.1631 23.2402V35.6445H17.6084Z" fill="var(--fill-0, #CDE1C2)"/>
</svg>
